<?xml version="1.0" encoding="UTF-8" standalone="no"?>
<!-- Created with Inkscape (http://www.inkscape.org/) -->

<svg
   xmlns:dc="http://purl.org/dc/elements/1.1/"
   xmlns:cc="http://creativecommons.org/ns#"
   xmlns:rdf="http://www.w3.org/1999/02/22-rdf-syntax-ns#"
   xmlns:svg="http://www.w3.org/2000/svg"
   xmlns="http://www.w3.org/2000/svg"
   xmlns:sodipodi="http://sodipodi.sourceforge.net/DTD/sodipodi-0.dtd"
   xmlns:inkscape="http://www.inkscape.org/namespaces/inkscape"
   width="1000px"
   height="800px"
   viewBox="0 0 1000 800"
   version="1.1"
   id="SVGRoot"
   inkscape:version="0.92.4 (33fec40, 2019-01-16)"
   sodipodi:docname="endoplasmic_reticulum.svg">
  <defs
     id="defs968" />
  <sodipodi:namedview
     id="base"
     pagecolor="#ffffff"
     bordercolor="#666666"
     borderopacity="1.0"
     inkscape:pageopacity="0.0"
     inkscape:pageshadow="2"
     inkscape:zoom="2.04"
     inkscape:cx="699.48631"
     inkscape:cy="408.31704"
     inkscape:document-units="px"
     inkscape:current-layer="layer1"
     showgrid="false"
     inkscape:window-width="1920"
     inkscape:window-height="1037"
     inkscape:window-x="0"
     inkscape:window-y="0"
     inkscape:window-maximized="1" />
  <metadata
     id="metadata971">
    <rdf:RDF>
      <cc:Work
         rdf:about="">
        <dc:format>image/svg+xml</dc:format>
        <dc:type
           rdf:resource="http://purl.org/dc/dcmitype/StillImage" />
        <dc:title />
      </cc:Work>
    </rdf:RDF>
  </metadata>
  <g
     inkscape:label="Layer 1"
     inkscape:groupmode="layer"
     id="layer1">
    <path
       style="fill:#fbfbf7;fill-opacity:1;stroke:none;stroke-width:1px;stroke-linecap:butt;stroke-linejoin:miter;stroke-opacity:1"
       d="M 148.35377,404.8521 C 147.16086,509.84853 24.260114,638.43958 95.667384,715.42449 180.96419,807.38385 384.95619,710.06059 470.3273,680.51654 819.25759,559.76361 905.44921,731.26716 967.76574,673.82997 1036.052,610.89051 937.4488,526.58342 930.59644,451.88517 917.72118,311.53066 1048.9514,93.158545 923.39826,29.114966 821.40684,-22.909997 752.12193,194.8631 641.94203,225.99568 612.09088,234.43046 524.44981,307.50463 549.04761,220.44974 607.67941,12.94401 182.68188,-39.840693 92.037423,20.053331 -16.117519,91.51754 149.82649,275.22781 148.35377,404.8521 Z"
       id="path2281"
       inkscape:connector-curvature="0"
       sodipodi:nodetypes="aassaaassa" />
    <path
       style="fill:#f5f9ff;fill-opacity:1;stroke:#5f9fff;stroke-width:1.19770551;stroke-linecap:butt;stroke-linejoin:miter;stroke-miterlimit:4;stroke-dasharray:none;stroke-opacity:1"
       d="M 165.62685,2.7846668 C 140.34585,3.2753072 128.24687,29.782483 143.64159,41.954876 274.82315,145.67839 325.62428,221.03142 332.93983,318.90949 l -50.64512,1.72979 C 266.43263,236.12755 213.42749,152.28409 112.43887,82.499515 27.547933,23.83866 -22.361257,60.657256 21.336058,87.605122 318.88195,271.09983 266.68131,521.96661 42.814887,657.34992 c -58.253719,35.22895 -30.721358,89.73456 69.731153,22.51572 l 30.80884,27.59682 c -21.21299,15.05671 -43.34842,29.37676 -66.293364,44.82927 -45.294836,30.50422 7.999815,53.60907 56.009464,25.39732 69.32785,-40.73888 132.67857,-86.15369 185.3326,-169.44689 l 46.59641,17.46118 c -33.63249,50.18783 -73.46238,88.95234 -111.91712,119.19547 -51.41227,40.43366 -3.795,79.68467 50.50043,30.36814 83.67769,-76.00444 146.01964,-129.93562 181.31871,-259.87739 l 57.09467,11.06282 c -12.22503,42.1193 -36.58984,87.07942 -86.41101,143.20408 -27.21709,30.66065 23.71306,40.05055 45.15484,21.28426 72.30844,-63.28579 112.85294,-158.81203 112.98357,-224.25047 0.0589,-29.50019 -15.47255,-40.45554 -30.71773,-40.56915 -14.32125,-0.10672 -28.38848,9.35434 -29.04305,21.99495 -0.46146,8.91139 -1.10479,17.71344 -2.03909,26.48789 l -55.68526,-8.48756 c 5.42033,-28.03744 9.86765,-59.14921 13.29296,-94.02076 l 50.73893,-1.77675 c 3.46514,25.80181 46.03646,16.08098 53.16385,-5.82652 26.49964,-81.45214 5.44573,-180.56143 -33.5821,-238.84843 -34.12184,-50.96001 -78.7077,-19.46061 -64.29985,4.23562 32.34404,53.19539 55.22495,104.83025 49.91631,187.82707 l -44.04553,1.24374 -10.86534,1.08034 c -10.74945,-35.23633 -61.56717,-24.29418 -61.45691,6.0144 0.3704,101.80686 -21.5211,183.34759 -54.50628,248.92894 l -48.24964,-16.73822 c 8.18332,-16.57516 16.03825,-34.39804 23.54204,-53.63134 20.54229,-52.65285 -42.60215,-65.08596 -54.58665,-30.56215 -32.82497,94.55886 -73.42761,150.11201 -119.98242,192.2853 L 162.97414,640.20529 C 241.22312,568.67537 288.63043,472.25682 287.46345,372.92273 l 45.605,-1.58479 c -0.47438,7.83905 -1.14021,15.83925 -1.99889,24.03311 -5.37527,51.29353 57.59904,44.00787 66.23173,-0.22668 9.2405,-47.34896 7.35118,-92.25962 -4.15054,-134.85744 l 43.69186,-8.94094 c 0.32625,1.18404 0.66454,2.33706 0.98604,3.53512 9.73248,36.26804 54.14741,15.07971 51.53472,-9.72515 -8.8108,-83.6498 -70.07096,-172.531453 -131.3649,-218.354522 -53.58896,-40.062867 -82.7443,0.596816 -59.20878,19.578978 51.91375,41.870158 94.54924,84.487024 124.04985,161.835464 l -44.69394,9.41269 C 345.43049,142.51428 282.18012,75.012676 197.5557,14.372351 185.63912,5.8331528 174.77102,2.6072011 165.62685,2.7846668 Z"
       id="path1555"
       inkscape:connector-curvature="0">
      <title
         id="title2948">Rough endoplasmic reticulum membrane</title>
    </path>
    <path
       style="fill:#fffcfb;fill-opacity:1;stroke:#ff9046;stroke-width:1.19770551;stroke-linecap:butt;stroke-linejoin:miter;stroke-miterlimit:4;stroke-dasharray:none;stroke-opacity:1"
       d="m 162.5615,16.022482 c -13.1426,0.319603 -13.65751,14.12919 -0.86548,23.377549 135.6912,98.101719 193.68918,186.804379 191.7071,295.193879 l -83.7985,2.52217 C 256.49377,252.19617 200.74107,169.70098 106.95353,96.603473 41.566992,45.641555 10.984716,66.732889 49.811047,93.211078 370.18506,311.69485 237.24327,562.02931 42.758619,672.01322 c -25.012395,14.14487 -18.351243,51.087 37.400382,14.59999 13.34224,-8.73192 26.018259,-17.78662 38.032759,-27.12711 l 50.39056,48.01108 c -19.72558,14.89618 -39.98086,28.54025 -60.32882,42.24379 -38.678238,26.04821 -7.96367,31.42839 33.03281,7.33777 61.12216,-35.91699 121.50356,-87.43681 169.5343,-168.44211 l 79.09063,30.87462 c -32.82495,54.0896 -72.07576,98.32984 -110.64704,125.29157 -42.53643,29.73343 -33.21162,51.71674 15.24632,17.5735 72.58766,-51.1449 143.17737,-134.2011 177.55134,-268.98988 l 88.01337,18.68039 c -7.49769,42.3572 -27.02275,91.58302 -79.57296,149.10412 -21.85326,23.92047 7.17783,28.03554 22.17014,12.11866 52.21276,-55.43255 86.23666,-145.4903 92.531,-195.25675 5.67127,-44.84046 -29.87773,-45.04022 -30.2783,-24.47831 -0.22327,11.46105 -0.61606,23.5591 -1.84618,36.32945 l -86.60391,-14.96148 c 8.15921,-36.64823 13.7071,-76.93535 16.03139,-121.21116 l 83.82798,-0.75972 c -1.20137,22.03376 23.53614,15.68154 27.65506,-2.19541 15.48546,-67.20958 -5.12641,-159.59824 -27.78635,-206.51768 -20.41699,-42.27523 -52.55785,-30.69913 -41.21329,-12.04107 28.3791,46.67441 61.0517,105.90651 44.60019,201.89609 0,0 -88.21433,3.75433 -88.21433,-2.12802 -5.0142,-24.90136 -22.31161,-22.90025 -21.30466,-0.51464 4.12874,91.78529 -24.08989,186.12563 -66.32018,263.96188 0,0 -83.0801,-25.55711 -79.04509,-31.70786 9.59406,-18.35126 18.58997,-38.06884 26.87268,-59.29855 17.5415,-44.96142 -18.89497,-38.14997 -29.12882,-8.66932 -33.0075,95.08476 -79.96228,151.17966 -132.03208,194.4807 l -52.08937,-47.19214 c 95.52053,-82.13718 142.2552,-183.84306 133.63981,-286.1059 h 80.20797 c -0.81666,9.04919 -2.00727,18.23682 -3.5932,27.58865 -7.69771,45.39194 22.98826,40.16849 30.66682,0.82302 9.0534,-46.39039 9.1576,-89.17746 -5.28161,-133.19937 -1.04577,-4.90196 72.2933,-20.08082 74.9833,-15.98031 0.79011,2.66733 1.54514,5.35105 2.26952,8.05052 7.77187,28.96179 21.71902,12.04125 19.63266,-7.76666 C 463.81757,169.63713 405.48433,77.133604 356.53815,40.541645 313.74476,8.5494874 302.56747,32.817224 321.36173,47.975407 365.55081,83.615331 416.54938,144.00208 443.23052,218.69463 l -74.50639,14.08896 C 339.47296,154.87181 274.3391,87.138443 193.51235,29.219453 179.79537,19.390122 169.44571,15.85507 162.5615,16.022482 Z"
       id="path1575"
       inkscape:connector-curvature="0"
       sodipodi:nodetypes="ssccssssccssccssccssssccccsssccsccssccccsscccsssccss">
      <title
         id="title2950">Rough endoplasmic reticulum </title>
    </path>
    <path
       id="rough_endoplasmic_reticulum"
       style="fill:none;stroke:none;stroke-width:1.19770551px;stroke-linecap:butt;stroke-linejoin:miter;stroke-opacity:1"
       d="m 325.72303,33.343513 49.45509,40.95534 33.76262,50.378697 20.44776,32.6193 16.16801,31.16955 8.55953,35.15636 m -98.91017,25.37055 98.91017,-25.37055 7.60847,18.8467 m 18.07015,100.75738 110.32289,1.81218 m -42.79767,-217.82441 26.15412,44.94214 14.74143,47.84163 8.08401,44.5797 -1.4266,51.46601 -6.18188,41.68021 m -15.21696,146.78684 -6.65741,36.6061 -17.11909,39.86803 -21.87435,40.23047 c 0,0 -41.37108,52.91574 -41.37108,51.466 m -24.25202,-191.0041 111.27395,22.8335 5.23082,-52.55331 m -98.43465,-125.76551 -0.95105,62.70153 -6.65741,49.29138 -12.83932,56.54012 -18.07013,52.91575 -34.23813,63.78885 m -103.14738,-34.87659 12.3212,-0.64221 90.82618,35.5188 -20.9233,42.04265 -42.32216,51.10356 -41.37107,37.69342 -34.71368,24.28325 m -77.46975,-60.06481 61.87004,-56.63817 51.78254,-73.29649 37.66004,-88.41709 m -225.96019,150.43719 74.64757,67.91456 -80.70008,56.38192 M 253.91804,347.39486 364.95422,344.8578 370.18506,311.69485 358.53457,263.12834 347.83516,223.26031 323.34537,181.39887 280.78546,123.04659 240.12767,84.26586 187.1061,41.679555 166.16788,25.292059 m -112.64384,51.768845 98.18509,76.884416 57.83505,67.65829 24.21003,39.97991 18.83,57.40703 4.03501,61.50754 -2.69,52.28141 -14.79502,50.23114 -30.93501,61.50754 -55.14506,66.63317 -61.870056,45.10553 -43.040039,31.77889 M 358.16681,406.12623 c 0,-1.28141 6.78741,-61.26843 6.78741,-61.26843"
       inkscape:connector-curvature="0"
       inkscape:label="Rough endoplasmic reticulum" />
    <path
       style="fill:none;stroke:none;stroke-width:1.19770551px;stroke-linecap:butt;stroke-linejoin:miter;stroke-opacity:1"
       d="m 14.25105,70.674487 19.021185,18.484269 20.92331,14.135034 19.972246,13.41015 15.692496,12.68528 17.594593,11.96041 9.03507,11.96042 19.49671,18.48427 21.87434,21.38375 14.26592,18.8467 12.83932,17.7594 12.36375,19.57157 12.8393,27.18276 8.08402,20.29645 6.18187,18.12183 9.98614,39.14315 -1.42661,41.31779 -2.37763,31.53198 -13.79038,47.11676 -19.97224,42.40509 -38.51791,52.19087 -52.7838,51.46601 -44.224258,30.80711 -29.482843,21.02133 -13.790364,17.03451 1.42659,13.04773 8.084006,5.07411 13.790362,1.0873 16.168009,-3.26192 30.909429,-14.49746 27.105209,-18.84671 7.60846,12.68528 19.49672,14.85991 10.46166,7.9736 -68.951835,46.3919 -17.59458,12.32284 1.902127,14.13502 21.874366,5.79899 24.252022,-4.34924 39.94448,-20.29645 c 0,0 61.34333,-45.30458 63.24547,-46.02945 1.90211,-0.72487 62.29439,-60.88936 62.29439,-60.88936 l 27.58071,-38.78071 9.03507,-16.67209 26.15412,13.41016 33.28711,12.68527 -26.62967,34.79391 -77.51135,79.0112 -29.48284,24.64569 -2.85318,17.39696 8.084,11.9604 17.11907,-1.81217 27.58074,-12.32286 41.37108,-36.96854 27.1052,-26.8203 29.95836,-29.35737 c 0,0 31.86051,-41.68022 31.86051,-43.85483 0,-2.17462 21.87436,-34.79392 21.87436,-34.79392 0,0 15.69247,-35.88122 16.16799,-37.33097 0.47555,-1.44975 16.16802,-48.20408 16.16802,-48.20408 l 5.23083,-13.04772 52.78379,11.23554 14.74141,2.17462 -10.93715,28.6325 -28.53181,56.54011 -37.56683,50.74113 -17.11908,23.19595 5.70637,12.32283 h 19.97224 l 14.2659,-3.9868 29.0073,-27.90762 41.37109,-55.81523 8.55953,-18.84671 c 0,0 20.92331,-44.57971 20.44778,-47.11677 -0.47552,-2.53706 9.98614,-39.14315 9.98614,-39.14315 0,0 5.23083,-26.09544 3.80421,-31.16955 -1.42658,-5.07411 -6.65741,-27.54518 -6.65741,-27.54518 l -12.83929,-11.23554 -19.97227,3.26193 -9.03504,7.97361 -2.85318,17.39696 -0.47554,22.10863 -71.32947,-11.96041 12.83931,-44.94214 4.27979,-58.3523 65.14756,-0.72488 0.95106,13.04773 14.74142,1.0873 19.02119,-6.16142 8.084,-13.41015 c 0,0 10.46166,-37.33098 8.55954,-38.78072 -1.90212,-1.44976 1.90212,-27.54519 0.95106,-28.99493 -0.95106,-1.44975 -0.95106,-37.33097 -0.95106,-37.33097 0,0 -9.98611,-52.55332 -11.88825,-55.09038 -1.90212,-2.53706 -17.59459,-48.92895 -17.59459,-48.92895 l -23.30096,-33.34417 -22.82544,-14.85989 -15.69247,3.62436 -10.46165,10.51066 6.6574,17.03452 19.0212,36.96854 13.31484,30.44467 9.51059,37.33098 3.32869,29.35736 1.90214,28.63251 0.47553,27.54518 -40.89556,0.36243 -28.05624,1.81219 -8.08402,-18.8467 -18.54567,-3.62438 -16.16801,9.42336 -5.70635,22.83351 -4.27976,63.06397 -10.46166,70.67514 -13.31483,41.68023 -11.88825,34.06904 -17.5946,39.50558 c 0,0 -44.22425,-16.67208 -46.12637,-17.75938 -1.90213,-1.08732 -16.64354,-8.69849 -16.64354,-8.69849 l 13.31483,-20.65888 15.21694,-32.98174 4.75531,-19.57157 -4.27978,-19.93402 -19.49672,-4.71168 -13.79036,4.34924 -14.74141,21.38376 -15.21696,41.31778 -20.44778,40.5929 -24.72754,41.31778 -23.30095,26.45787 -23.30094,26.09545 -15.69251,16.67208 -28.05624,-30.44468 -11.41273,-10.87311 18.54567,-13.77258 33.76261,-35.5188 22.3499,-30.44467 17.11906,-27.18274 c 0,0 16.64354,-38.78074 17.11908,-40.59291 0.47551,-1.81219 10.93718,-29.7198 10.93718,-34.06905 0,-4.34923 6.65741,-32.98173 6.65741,-32.98173 0,0 3.32873,-32.98174 2.85319,-34.43148 -0.47553,-1.44975 -1.4266,-24.64569 -1.4266,-24.64569 l 31.38496,2.53706 31.38496,-2.17463 -4.75529,21.7462 1.90213,33.34417 17.11907,4.71167 21.39883,-3.26192 8.084,-22.83351 c 0,0 7.13294,-13.04771 7.13294,-15.22234 0,-2.17462 2.85319,-40.5929 2.85319,-40.5929 l -2.37767,-32.98173 -3.80422,-34.06905 -7.60849,-18.12183 33.76261,-5.07412 19.97225,-8.69847 9.98614,17.39696 8.55953,9.06091 19.49671,-6.16142 9.03508,-10.51067 c 0,0 2.37765,-17.03451 0.47552,-20.65888 -1.90209,-3.62436 -12.36377,-33.34417 -12.36377,-33.34417 0,0 -19.02119,-47.47921 -19.4967,-49.29138 -0.47555,-1.81219 -16.64356,-35.15636 -16.64356,-35.15636 L 407.51413,82.272458 386.1153,57.989204 363.28987,38.055189 343.31761,22.470414 l -15.69246,-6.523861 -21.87437,2.899494 -7.13295,15.222339 7.60848,15.584775 18.54565,14.859903 25.67861,22.108634 26.62965,34.069052 22.34991,24.28324 14.26589,29.71981 8.55953,22.10863 11.41272,15.58478 -35.18919,7.24872 c 0,0 -24.72756,10.87311 -25.67862,9.42337 -0.95108,-1.44974 -8.55953,-21.02133 -11.88823,-25.00813 -3.32871,-3.98681 -38.51792,-67.05078 -40.42004,-67.77565 -1.90212,-0.72488 -51.83273,-57.989864 -51.83273,-57.989864 L 222.05755,40.954682 176.88221,11.959751 155.48336,8.6978211 143.59513,28.2694 l 13.31483,19.934015 43.27321,30.082241 49.93062,49.653824 50.88169,71.03757 23.77648,46.02946 9.51058,32.25686 7.60848,47.84164 c 0,0 -35.1892,3.9868 -38.99342,3.26193 -3.80426,-0.72488 -21.55396,-0.47893 -21.55396,-0.47893 l -9.35548,-10.03174 c 0,0 -10.93719,-50.3787 -13.31484,-51.82844 -2.37762,-1.44975 -21.39883,-47.4792 -23.30096,-48.56651 -1.90209,-1.0873 -54.68591,-68.50053 -54.68591,-68.50053 L 124.09842,97.132361 80.349694,68.862303 39.929654,55.814584 22.810582,61.976008 Z"
       id="rough_endoplasmic_reticulum_membrane"
       inkscape:connector-curvature="0"
       sodipodi:nodetypes="ccccccccccccccccccccccccccccccccccccccccccccccccccccccccsccccccccccccccccsccccccccccccccccsccccccccccccccccccccccccccccccccccccccccccccccccsccccccccccsccccccccccccccccccccccccccccccsscccccccccccccccccccccccc"
       inkscape:label="Rough endoplasmic reticulum membrane">
      <title
         id="title1830">Rough endoplasmic reticulum membrane</title>
    </path>
    <path
       id="path2168"
       style="fill:#fafdf7;fill-opacity:1;stroke:#37c837;stroke-width:1.18208325px;stroke-linecap:butt;stroke-linejoin:miter;stroke-opacity:1"
       d="m 896.03747,248.00641 c -15.87457,12.51348 2.13608,40.99625 9.18427,59.94122 8.63014,23.19712 14.71056,63.11222 39.4601,62.89807 32.16174,-0.2783 59.97426,-52.08059 49.85595,-82.61047 -11.15761,-33.66541 -70.64723,-62.18459 -98.50032,-40.22882 z m 72.15173,223.05418 c 13.23579,-11.39802 19.50132,-35.84984 11.16345,-51.19848 -13.46378,-24.7847 -56.88831,-47.17344 -79.16713,-29.87575 -22.49887,17.46853 -12.41666,66.6408 9.41874,84.93192 15.00243,12.56724 43.75526,8.91292 58.58494,-3.85769 z m -288.84078,0.29232 c 18.49061,36.0169 14.57016,89.3585 -2.3178,118.29567 -5.41118,9.27195 10.47841,49.02588 59.10416,8.82803 43.9351,-36.32019 18.14968,-138.92379 -46.35621,-143.89698 -8.08025,-0.62296 -15.15765,7.56483 -10.43015,16.77328 z M 782.21283,236.75565 c -4.05235,20.77052 3.70602,50.81715 23.1781,59.10415 22.31144,9.49538 59.78961,-4.73118 67.2165,-27.81373 9.19325,-28.57234 -17.65501,-73.44318 -47.51511,-76.48773 -20.65998,-2.10648 -38.90278,24.81453 -42.87949,45.19731 z m 32.91291,89.0039 c -17.92879,9.58763 -43.25715,27.81152 -38.24387,47.51511 7.4298,29.20114 56.68649,48.62703 83.44116,34.76714 26.71288,-13.83821 39.53617,-65.45697 19.7014,-88.07678 -14.31939,-16.32997 -45.74628,-4.44745 -64.89869,5.79453 z m -18.58883,120.20164 c -22.00539,18.05343 -29.40518,62.40208 -11.58905,84.60005 17.71079,22.06675 63.41002,25.70432 84.60006,6.95344 21.71477,-19.21523 22.92399,-65.41067 3.47671,-86.91787 -17.1313,-18.94592 -56.74035,-20.83656 -76.48772,-4.63562 z M 689.54126,370.09845 c -11.98068,12.71079 -15.67332,37.68101 -5.78675,52.0809 15.96459,23.25266 61.47918,41.01125 81.84139,21.4937 20.56336,-19.71034 5.42969,-67.5699 -18.18698,-83.49478 -16.22628,-10.94149 -44.44422,-4.32129 -57.86766,9.92018 z m -2.1517,-216.80884 c 26.62484,44.56971 42.81023,86.98762 20.13848,161.51432 -7.59706,24.97334 35.32013,21.20517 43.62176,4.99852 27.99546,-54.65399 17.88232,-123.93635 -10.15051,-166.07194 -24.50893,-36.83891 -63.79723,-17.49476 -53.60973,-0.4409 z"
       inkscape:connector-curvature="0">
      <title
         id="title2956">Smooth endoplasmic reticulum membrane</title>
    </path>
    <path
       id="path2182"
       style="fill:#f9f9ff;fill-opacity:1;stroke:#acacff;stroke-width:1.18208325;stroke-linecap:butt;stroke-linejoin:miter;stroke-miterlimit:4;stroke-dasharray:none;stroke-opacity:1"
       d="m 957.44851,462.59352 c 9.55465,-8.22795 14.07764,-25.87924 8.05866,-36.95905 -9.71919,-17.89161 -41.06642,-34.05344 -57.14898,-21.56664 -16.24143,12.61014 -8.96333,48.1065 6.79917,61.31042 10.8299,9.07202 31.58605,6.43407 42.29115,-2.78473 z M 795.91252,241.16097 c -2.85052,14.61068 2.60698,35.74626 16.30419,41.5756 15.69449,6.67927 42.05766,-3.32806 47.28193,-19.56498 6.46681,-20.09854 -12.41905,-51.66198 -33.42343,-53.80363 -14.53288,-1.48177 -27.36541,17.45524 -30.16269,31.79301 z m 114.74568,22.1966 c -11.46783,9.03971 1.54305,29.61573 6.63471,43.30155 6.23442,16.75756 10.62685,45.59226 28.50592,45.43758 23.23371,-0.20111 43.32541,-37.62292 36.01595,-59.67782 C 973.7545,268.099 930.77911,247.49674 910.6582,263.35757 Z M 694.67283,493.84468 c 12.6192,24.5803 9.94368,60.98419 -1.58171,80.73283 -3.69306,6.32771 7.15106,33.45844 40.3364,6.02483 29.98433,-24.78734 12.38672,-94.81086 -31.63645,-98.20491 -5.51449,-0.42518 -10.34452,5.16271 -7.11824,11.44725 z m 109.18839,-36.18316 c -17.53869,14.38895 -23.4364,49.73566 -9.23671,67.42795 14.11589,17.58752 50.53906,20.48697 67.42799,5.54198 17.30713,-15.31484 18.27091,-52.13357 2.77101,-69.27534 -13.65408,-15.10021 -45.22321,-16.60708 -60.96229,-3.69459 z m 17.9892,-124.13727 c -12.379,7.70334 -29.86686,22.34571 -26.40543,38.17702 5.12988,23.46224 39.13905,39.07035 57.61198,27.93433 18.44376,-11.11851 27.29771,-52.59267 13.60276,-70.76705 -9.88673,-13.12063 -31.58551,-3.57341 -44.80931,4.6557 z m -121.56098,45.87331 c -8.51211,9.4522 -11.13565,28.021 -4.11131,38.72914 11.34269,17.29151 43.68016,30.49769 58.14755,15.98372 14.60986,-14.65742 3.85757,-50.24764 -12.92191,-62.09006 -11.52853,-8.13639 -31.57713,-3.21333 -41.11433,7.3772 z m 3.77413,-220.22655 c 21.26121,35.59111 36.29366,92.27831 18.18926,151.79155 -6.06673,19.9424 11.67678,12.28526 18.30592,-0.65655 22.3558,-43.64388 15.99523,-114.57846 -6.39038,-148.22578 -19.57155,-29.41767 -38.24009,-16.52756 -30.1048,-2.90922 z"
       inkscape:connector-curvature="0">
      <title
         id="title2958">Smooth endoplasmic reticulum</title>
    </path>
    <path
       id="smooth_endoplasmic_reticulum"
       style="fill:none;stroke:none;stroke-width:1px;stroke-linecap:butt;stroke-linejoin:miter;stroke-opacity:1"
       d="m 782.84314,475.68627 c 1.47059,-2.94117 10.29412,-17.15686 10.29412,-17.15686 l 25.98039,-15.68627 30.39215,0.98039 c 0,0 13.2353,4.41176 17.15687,9.80392 3.92157,5.39216 15.19608,24.01961 15.19608,24.01961 L 879.90196,510 l -11.27451,24.01961 -20.58823,9.31372 -33.33334,0.9804 -24.5098,-13.2353 -9.80392,-18.62745 -1.47059,-24.5098 z m -91.17647,-13.72549 -2.45098,18.62746 4.41176,25.49019 2.94118,35.29412 -3.92157,25.98039 -9.80392,19.60784 4.90196,19.11765 33.33333,-5.88235 21.56863,-16.17647 10.78431,-28.43137 c 0,0 -2.45098,-30.88236 -2.45098,-33.33334 0,-2.45098 -11.27451,-33.33333 -14.21568,-35.29412 C 733.82353,485 708.33333,464.90196 708.33333,464.90196 Z m 217.15686,-71.56862 c 1.96078,0 28.43137,0.49019 28.43137,0.49019 l 25.4902,16.66667 13.72549,19.11765 -0.98039,25.49019 -7.301,18.90373 -34.85587,8.05706 c 0,0 -20.58823,-3.92157 -21.56862,-5.88236 -0.9804,-1.96078 -14.21569,-19.11764 -14.21569,-19.11764 l -5.88235,-24.01961 1.47059,-25.4902 7.84313,-11.7647 z m -126.47059,-29.41177 19.11765,-21.07843 27.45098,-16.66667 34.80392,-8.33333 16.66667,11.27451 4.90196,30.88235 -8.33334,28.43138 -17.15686,18.62745 -29.90196,5.39215 -28.92157,-11.7647 -18.62745,-21.07843 z m -92.81168,9.11806 32.51756,-13.03963 25,7.84314 15.19608,22.54902 8.33334,30.88235 -7.84314,22.54902 -18.62745,6.86275 -29.41177,-4.90196 -25.98039,-22.05883 -8.82353,-16.66666 4.90196,-21.56863 z m 206.49621,-122.09204 24.06057,-3.69268 34.31373,6.37254 25.49019,20.58824 12.7451,22.54902 -0.4902,25.98039 -13.72549,26.96079 -19.60784,17.64705 -23.03922,2.45098 -13.23529,-17.64705 c 0,0 -7.84314,-22.05883 -8.82353,-24.50981 -0.98039,-2.45098 -10.29412,-30.88235 -10.29412,-30.88235 0,0 -8.82353,-22.05882 -9.80392,-24.01961 -0.98039,-1.96078 2.41002,-21.79751 2.41002,-21.79751 z m -113.82464,-11.25076 26.1205,-35.57918 16.17647,-4.90196 22.05883,10.29412 18.62745,21.56862 6.37255,29.90197 -9.80392,22.54902 -20.09804,11.2745 -24.50981,3.92157 -19.60784,-9.80392 -11.76471,-20.09804 z m -94.82327,-83.46604 18.98299,-15.34843 19.11765,6.86274 18.13725,20.58824 15.19608,41.66666 4.41176,44.60785 -4.41176,35.78431 -12.2549,33.82353 -12.7451,7.35294 -21.07843,-0.98039 -1.47059,-7.84314 6.86275,-33.33333 4.41176,-36.76471 -4.90196,-37.7451 -13.72549,-37.2549 z"
       inkscape:connector-curvature="0"
       inkscape:label="Smooth endoplasmic reticulum">
      <title
         id="title2201">Smooth endoplasmic reticulum</title>
    </path>
    <path
       id="smooth_endoplasmic_reticulum_membrane"
       style="fill:none;stroke:none;stroke-width:1px;stroke-linecap:butt;stroke-linejoin:miter;stroke-opacity:1"
       d="m 917.64706,266.12745 c 0.98039,-0.2451 20.83333,-1.71569 20.83333,-1.71569 l 25.9804,15.44118 c 0,0 9.80392,16.91177 9.80392,18.62745 0,1.71569 -2.69608,25.98039 -2.69608,25.98039 l -17.40196,17.89216 c 0,0 -16.17647,-1.71569 -16.91177,-2.69608 -0.73529,-0.98039 -7.35294,-19.11764 -7.35294,-19.11764 0,0 -9.06863,-25.9804 -9.55882,-26.96079 -0.4902,-0.98039 -4.90196,-17.15686 -4.90196,-17.15686 0,0 19.11764,-1.96079 20.09804,-1.71569 C 936.51961,274.95098 957.59804,285 957.59804,285 l 9.06863,21.56863 -5.39216,19.85294 c 0,0 -14.21569,6.61765 -15.44118,6.37255 -1.22549,-0.2451 -13.23529,-23.03922 -13.23529,-23.03922 l -6.12745,-25.73529 c 0,0 16.17647,3.92157 17.15686,4.90196 0.98039,0.98039 11.27451,18.13725 11.27451,19.60784 0,1.47059 -8.33333,6.61765 -8.33333,6.61765 l -7.35294,-14.46079 m -27.69608,108.08824 20.34314,-1.47059 23.52941,14.21569 c 0,0 5.63725,15.93137 4.65686,18.38235 -0.98039,2.45098 -5.88235,17.15686 -6.86274,18.13726 -0.9804,0.98039 -20.58824,4.90196 -20.58824,4.90196 l -18.13725,-6.86275 c 0,0 -6.86275,-12.0098 -6.86275,-13.72549 0,-1.71569 -2.69608,-19.36274 -2.69608,-19.36274 l 14.21569,-7.35295 24.2647,6.12746 c 0,0 6.12745,11.7647 6.12745,12.74509 0,0.9804 -0.98039,14.21569 -1.96078,14.95098 -0.98039,0.7353 -16.17647,4.65687 -16.17647,4.65687 l -12.5,-4.65687 -7.10784,-16.42156 10.78431,-8.33334 17.89216,5.39216 -2.45098,12.2549 c 0,0 -3.92157,3.92157 -5.39216,3.43137 -1.47059,-0.49019 -9.06863,-5.63725 -9.06863,-5.63725 l 1.22549,-6.86275 6.86275,2.20589 M 849.7549,332.05882 c -1.47059,0.2451 -28.18627,10.78432 -28.18627,10.78432 0,0 -16.66667,17.64706 -16.66667,18.62745 0,0.98039 6.61765,22.54902 6.61765,22.54902 l 22.79412,10.78431 c 0,0 23.28431,-10.53921 23.03921,-13.23529 -0.2451,-2.69608 4.65686,-35.53922 4.65686,-35.53922 l -15.44117,-6.37255 -22.79412,11.27451 -10.04902,16.66667 13.97059,16.17647 c 0,0 17.15686,-2.20588 18.13725,-3.92157 0.9804,-1.71569 6.37255,-25.4902 6.37255,-25.4902 l -13.97058,-4.65686 -10.04902,17.64706 c 0,0 7.84313,7.35294 8.82352,6.37255 0.9804,-0.98039 4.90197,-12.7451 4.90197,-12.7451 m -44.11765,117.15686 17.64706,-21.07843 30.14706,-0.24509 19.11764,14.95098 4.90196,24.0196 -6.86274,28.18628 -22.79412,12.0098 -29.65686,-4.65686 -18.38235,-20.58824 2.94117,-23.52941 28.67647,-20.83333 22.54902,1.47059 14.70588,19.36274 -1.96078,29.16667 -24.01961,10.29412 c 0,0 -22.79412,-2.94118 -23.03921,-4.16667 -0.2451,-1.22549 -12.5,-20.83333 -12.5,-20.83333 l 9.06862,-14.70589 24.26471,-12.99019 16.66667,15.44117 0.49019,21.07844 c 0,0 -22.54902,8.33333 -24.01961,8.08823 -1.47058,-0.2451 -20.34313,-16.42157 -20.34313,-16.42157 l 16.91176,-13.48039 18.38236,3.18627 -0.7353,15.19608 -13.72549,0.2451 -7.59804,-5.63725 12.00981,-5.63726 m -125,-4.41176 5.63725,33.57843 -3.67647,29.41176 -6.37255,21.56863 5.39216,8.57843 24.01961,-11.51961 12.74509,-26.96078 -7.59804,-32.84314 -17.64705,-14.70588 -2.45098,17.89216 1.47058,22.54902 -6.37255,27.69607 -1.47058,7.35295 13.23529,-4.90196 11.51961,-23.28432 -4.90196,-29.41176 -6.61765,-0.9804 2.45098,27.94118 -6.37255,17.40196 m -10.29412,-179.16666 22.05883,-7.35295 17.40196,17.89216 5.14706,21.56863 -8.57843,16.66666 -20.58824,0.4902 -19.85294,-14.70588 -6.37255,-18.38235 9.31373,-7.84314 20.09804,-7.10784 13.72549,12.5 5.63725,18.13725 -15.68627,10.78431 -19.11765,-12.0098 -4.90196,-13.97059 18.62745,-4.65686 9.06863,15.19608 -11.51961,1.22549 -4.65686,-9.06863 m 102.69607,-183.82353 -17.40196,19.60784 0.7353,28.92157 11.51961,12.5 22.05882,-1.71568 16.17647,-19.60785 -5.63726,-23.28431 -11.7647,-14.21569 -15.44118,4.65687 -11.02941,15.93137 -0.2451,23.03921 10.53922,8.08824 17.89216,-6.12745 7.10784,-16.42157 -6.86275,-15.68627 -12.5,-5.63726 -10.78431,16.17647 1.71569,17.89216 19.11764,-2.94118 -0.49019,-18.62745 -9.31373,-2.69608 -5.14706,13.2353 7.10785,2.69607 1.47058,-7.35294 m -118.87255,-95.83333 -3.67647,5.14706 12.00981,-3.43137 -9.55883,9.55882 17.64706,-1.71569 -11.5196,14.95098 20.58823,0.9804 -15.19608,14.95098 22.30392,8.33333 -15.68627,9.55882 20.34314,7.10785 -16.17647,6.86274 17.40196,9.55882 -14.95098,6.61765 12.99019,10.29412 -13.72549,9.31373 11.27451,13.97058 -12.7451,5.39216 9.80393,11.02941 -14.70589,12.9902 3.18628,12.5"
       inkscape:connector-curvature="0"
       inkscape:label="Smooth endoplasmic reticulum membrane">
      <title
         id="title2220">Smooth endoplasmic reticulum membrane</title>
    </path>
  </g>
</svg>
