<svg width="1172" height="607" viewBox="0 0 1172 607" fill="none" xmlns="http://www.w3.org/2000/svg">
<g id="endoplasmic_reticulum">
<g id="Rough ER">
<path id="Vector" d="M470 41.5C470 3.00002 429.5 0.5 429.5 0.5C183.1 14.1 -7.5 292 1.5 361C1.5 361 3.99998 393.216 22.5 398C41 402.784 44 387.5 48.5 379.5C56.5 352.3 109.167 282.833 136.5 250C143.833 259.833 151.3 270 158.5 278C129.5 310.5 65.2569 394 50.5 436.5C35.743 479 73.5 496 83.5 475C91.5 458.2 122.167 413.667 138 391.5C144 397.333 147.1 400.7 157.5 411.5C143.1 425.5 100.667 486.833 93.5 517C86.3333 547.167 98 568 109 570C120 572 135.718 549.5 140.026 541.5C187.626 453.1 242.5 408.667 272 390.5C276.667 405.667 280.8 419.9 286 431.5C230.4 457.1 190.5 505 181.5 521C172.5 537 175.5 573.258 194.5 580C204 583.371 222.5 569 222.5 569C244.5 543 292 476.5 398 471.5C514.4 468.7 580.333 525.167 602 557C602 557 618.5 576.854 637.026 569C650 563.5 646.026 530 637.026 512C628.026 494 571 454.5 571 454.5C580 444.333 590.4 430.1 604 416.5C664.8 456.5 718.333 546.833 742.5 590C742.5 590 759 613.258 776 604.5C793 595.742 785.977 565.5 782 554C767.2 511.2 715 445 685 412.5C700.167 397.833 719.5 380.1 719.5 382.5C722 385.5 727.5 398.5 736 411.5C736 411.5 750.5 427 763 420C775.5 413 776 385.5 774 373C749 293 663.167 212.333 608.5 173.5C614.667 164 619.2 156.5 628 144.5C643.2 152.1 679 199.5 682.5 203.5C686 207.5 714.026 222.5 720 193C724.384 178.5 712.026 149.5 712.026 149.5C660.026 75 563.5 11 515 3.00002C515 3.00002 482 2.50001 476 33C470 63.5 508 74 508 74C538 76.8 570.667 99.3333 587.5 112.5C582 121.5 577.3 132.2 566.5 149C456.9 93 365 128.167 334 151.5C334 151.5 310.488 174.5 317 202.5C323.512 230.5 357.5 222.722 362.5 220.5C528.1 146.9 645 272 696 346.5C682.5 360 664.1 379.9 658.5 385.5C630.9 359.1 594.167 334.667 579.5 324.5C579.5 324.5 558 315 546.5 333.5C535 352 543 364.5 546.5 373C550 381.5 569 394.5 569 394.5C555.667 407.167 540.9 423.5 534.5 431.5C445.7 377.9 364 394 332 409C329.667 395.667 327.1 375.9 313.5 357.5C400.5 312.5 478.167 335.667 508.5 351C508.5 351 536.59 360 541.5 324.5C544.957 299.5 523 281.886 516.5 278.5C382.9 208.9 240.5 311.333 186.5 374C179.5 366.333 176 362.2 168 355C222 283 259.045 270.466 289 248C321 224 297.5 167.167 272.5 175.5C255.7 181.1 214.833 218.333 195.5 239L174 210C266.5 106 378.5 77.5 434.5 77.5C434.5 77.5 470 80 470 41.5Z" fill="#EDECFC" stroke="#8787DE"/>
<path id="rough_endoplasmic_reticulum_membrane" stroke-width="0" d="M466 41.5C466.585 7.00002 429.5 4.5 429.5 4.5C183.1 18.1 -1.50003 298 4.49998 360C4.49998 360 6.99998 390.216 22.5 395C38 399.784 42.5 384 47 376C55 348.8 109.167 277.833 136.5 245C143.833 254.833 155.3 270 162.5 278C133.5 310.5 67.868 397 54.5 435.5C41.1319 474 71.5 492 81.5 471C89.5 454.2 121.167 407.667 137 385.5C143 391.333 152.1 400.7 162.5 411.5C148.1 425.5 105.5 484 98.5 517C90.5 545 99 562 110 564C121 566 131.718 546.5 136.026 538.5C183.626 450.1 244.5 400.667 274 382.5L274.13 382.921C278.798 398.094 285.848 421.007 291 432.5C235.4 458.1 196.5 503 187.5 519C178.5 535 177.5 568.258 196.5 575C206 578.371 221.5 564 221.5 564C243.5 537 292 472.5 398 467.5C514.4 464.7 581.333 521.167 604 553C604 553 619.5 573 636 564C645 555 642.026 530 633.026 512C624.026 494 566 455.5 566 455.5C575 445.333 590.4 426.1 604 412.5C664.8 452.5 722.333 545.833 746.5 589C746.5 589 760.5 609 775 600.5C789.5 592 782.977 565.5 779 554C764.2 511.2 710 445 680 412.5C695.167 397.833 719.5 375.1 719.5 377.5C722 380.5 730.5 395.5 739 408.5C739 408.5 751 421.5 761 416C770.5 409 772 387.5 770 375C749.5 299 657.167 213.333 602.5 174.5C608.667 165 618.2 151.5 627 139.5C642.2 147.1 671.667 182.833 685.5 200.5C685.5 200.5 707.139 218 715 192C719.384 177.5 709.026 153.5 709.026 153.5C657.026 79 564.5 15 516 7.00002C516 7.00002 486 5.50001 480 33C474 60.5 509 70 509 70C539 72.8 575.667 98.3333 592.5 111.5C587 120.5 578.3 136.7 567.5 153.5C457.9 97.5 367 132.167 336 155.5C336 155.5 316 180 321 201.5C327.512 229.5 360.5 216.722 365.5 214.5C531.1 140.9 651 273 702 347.5L658.5 391C630.9 364.6 594.667 338.167 580 328C580 328 561 320 550 335C539 350 546.5 363 550 371.5C553.5 380 576 393.5 576 393.5C562.667 406.167 540.4 428.5 534 436.5C445.2 382.9 361.5 398.5 329.5 413.5C327.167 400.167 322.1 375.4 308.5 357C387.5 311.5 471.667 327.667 502 343C502 343 532.09 361 537 325.5C540.457 300.5 521.5 287.386 515 283C381.4 213.4 240.5 317.833 186.5 380.5C179.5 372.833 170.5 362.2 162.5 355C216.5 283 252 268 283 247C314 226 295 174.833 272 182.5C255.2 188.1 213.333 227.333 194 248L167.026 212.5C262.026 101.5 378.5 73.5 434.5 73.5C434.5 73.5 465.415 76 466 41.5Z" stroke="black"/>
<path id="Vector_2" d="M462.026 41.5C462.526 12 430.026 9 430.026 9C183.626 22.6 6.52611 300 9.02611 356C9.02611 356 9.02611 387.333 22.5261 391.5C36.0261 395.667 40.5261 379.5 45.0261 371.5C53.0261 344.3 109.693 271.833 137.026 239C144.359 248.833 160.826 270.5 168.026 278.5C139.026 311 72.0261 397.5 59.5261 433.5C47.0261 469.5 69.5261 488 79.5261 467C87.5261 450.2 121.193 401.667 137.026 379.5C143.026 385.333 157.626 399.7 168.026 410.5C153.626 424.5 111.693 481.333 104.526 511.5C97.3594 541.667 98.0261 555.5 109.026 557.5C120.026 559.5 124.718 546.5 129.026 538.5C176.626 450.1 247.526 391.667 277.026 373.5C281.693 388.667 292.326 421.9 297.526 433.5C241.926 459.1 200.026 505 193.026 517C186.026 529 181.526 564 197.026 569.5C206.526 572.871 219.526 557.5 219.526 557.5C241.526 530.5 294.026 467 400.026 462C516.426 459.2 588.859 522.167 610.526 554C610.526 554 624.026 567.5 633.026 558.5C642.026 549.5 637.526 531 628.526 513C619.526 495 560.026 456 560.026 456C569.026 445.833 590.426 422.1 604.026 408.5C664.826 448.5 728.359 544.833 752.526 588C752.526 588 765.526 604 774.026 596.5C782.526 589 779.503 567.5 775.526 556C760.726 513.2 705.026 445 675.026 412.5C690.193 397.833 720.526 369.1 720.526 371.5C723.026 374.5 732.526 391.5 741.026 404.5C741.026 404.5 749.026 416.5 758.026 411.5C767.526 404.5 768.526 389 766.526 376.5C741.526 296.5 651.193 215.333 596.526 176.5C602.693 167 617.226 145 626.026 133C641.226 140.6 672.693 177.833 686.526 195.5C686.526 195.5 703.5 212.5 710 191C714.384 176.5 705.026 155.5 705.026 155.5C653.026 81 566.526 20 518.026 12C518.026 12 490.026 5.5 484.026 33C478.026 60.5 511.026 67 511.026 67C541.026 69.8 582.193 97.8333 599.026 111C593.526 120 579.826 142.2 569.026 159C459.426 103 370.026 135.667 339.026 159C339.026 159 319.526 179 324.526 200.5C331.038 228.5 357.026 211.222 362.026 209C527.626 135.4 660.359 271.333 706.026 348.5L658.526 396C630.926 369.6 594.693 342.667 580.026 332.5C580.026 332.5 564.026 321.5 553.026 336.5C542.026 351.5 549.526 359.5 553.026 368C556.526 376.5 582.026 393 582.026 393C568.693 405.667 540.426 433 534.026 441C445.226 387.4 359.026 404 327.026 419C324.693 405.667 316.626 374.4 303.026 356C391.026 305.6 473.693 323.667 504.026 339C504.026 339 529.693 356.333 534.026 325C534.026 301 521.526 290.386 515.026 287C381.426 217.4 240.026 325.333 186.026 388C179.026 380.333 163.026 363.2 155.026 356C209.026 284 246.026 267 277.026 246C308.026 225 293.026 181 272.026 188C255.226 193.6 212.359 236.333 193.026 257L158.026 213C253.026 102 379.693 64.6667 435.526 70C435.526 70 461.526 71 462.026 41.5Z" fill="#F1F4F1" stroke="#8787DE"/>
<path id="rough_endoplasmic_reticulum" stroke-width="0" d="M431.026 40C369.175 41.247 243.806 78.0224 132.99 200M29.0261 354C60.0485 291.754 95.6953 241.052 132.99 200M132.99 200L190.026 282M190.026 282C206.693 266 245.426 231.8 267.026 223M190.026 282C166.489 304.926 145.901 330.041 128.72 354M74.0261 447C82.0588 428.463 100.935 392.744 128.72 354M128.72 354L190.026 416M190.026 416C170.359 436.333 127.826 488.2 115.026 533M190.026 416C210.579 392.955 243.059 363.673 282.026 339.582M507.026 316C430.868 273.411 347.335 299.206 282.026 339.582M282.026 339.582L320.026 453M320.026 453C293.859 462.833 234.826 494 208.026 540M320.026 453C360.15 434.51 445.932 419.552 532.026 466.107M614.526 533C588.032 502.875 560.012 481.241 532.026 466.107M532.026 466.107L607.026 385M607.026 385L568.526 356.5M607.026 385C617.562 392.615 632.434 404.749 649.196 420.5M761.026 567C731.896 507.09 685.992 455.078 649.196 420.5M649.196 420.5L729.026 344.5M729.026 344.5C736.859 357.167 751.026 387.1 753.026 393.5M729.026 344.5C699.484 295.231 641.978 226.637 568.526 187.803M345.526 188C426.755 142.479 503.826 153.596 568.526 187.803M568.526 187.803L627.526 99.5M627.526 99.5C647.859 118.167 688.026 164 694.026 178M627.526 99.5C603.859 77.3333 544.026 38.4 502.026 40" stroke="black"/>
</g>
<g id="Smooth ER">
<path id="Vector_3" d="M1020.19 203.313C1020.19 185.856 999.965 185.651 999.965 185.651C879.557 198.531 828.967 296.113 822.006 331.259C822.006 331.259 821.507 348.63 829.896 350.799C838.284 352.968 843.635 349.417 845.676 345.79C849.303 333.456 863.99 317.962 876.383 303.075C879.709 307.533 881.238 308.266 884.502 311.893C871.353 326.629 845.948 360.36 839.257 379.631C832.565 398.901 852.47 407.538 857.004 398.016C860.632 390.398 870.132 375.121 877.312 365.07C880.032 367.715 878.653 368.313 883.369 373.21C876.839 379.558 862.932 403.381 859.682 417.06C856.432 430.738 861.722 436.471 866.71 437.378C871.698 438.285 878.825 431.796 880.778 428.168C902.361 389.942 917.849 376.42 931.225 368.183C933.34 375.06 932.43 376.872 934.788 382.132C909.577 393.739 904.592 406.049 900.512 413.304C896.431 420.559 898.719 437.927 907.334 440.984C911.642 442.512 923.743 436.925 923.743 436.925C934.788 425.603 949.687 398.696 997.749 396.429C1050.53 395.159 1080.42 420.762 1090.25 435.196C1090.25 435.196 1097.73 444.199 1106.13 440.638C1112.01 438.144 1110.21 422.954 1106.13 414.792C1102.05 406.631 1090.25 395.471 1090.25 395.471C1094.33 390.862 1095.33 388.121 1101.5 381.954C1129.07 400.091 1134.64 416.663 1145.6 436.236C1145.6 436.236 1153.08 446.781 1160.79 442.81C1168.5 438.839 1169.03 426.055 1167.22 420.841C1160.51 401.434 1147.29 386.141 1133.68 371.405C1140.56 364.755 1141.9 363.212 1143.76 362.443C1144.89 363.804 1145.3 365.185 1149.15 371.08C1149.15 371.08 1159.44 378.108 1165.11 374.934C1170.77 371.76 1171.93 354.65 1171.02 348.982C1159.69 312.708 1124.09 280.234 1099.3 262.626C1102.1 258.319 1100.44 258.631 1104.43 253.19C1111.32 256.636 1121.45 271.241 1122.11 272.127C1122.77 273.012 1132.76 284.822 1141.9 268.294C1143.88 261.719 1140.14 250.426 1140.14 250.426C1119.05 214.427 1074.95 185.651 1050.8 184C1050.8 184 1039.87 184.027 1036.83 199.459C1033.79 214.891 1047.63 216.193 1047.63 216.193C1061.23 217.463 1068.95 224.308 1076.59 230.279C1074.09 234.359 1071.96 239.211 1067.06 246.828C1017.37 221.437 994.328 235.32 980.272 245.9C980.272 245.9 969.893 257.455 972.846 270.15C975.798 282.846 987.228 282.123 989.554 281.261C1059.64 255.27 1101.77 300.264 1124.89 334.044C1118.77 340.165 1112.28 346.403 1109.74 348.942C1097.23 336.972 1086.7 332.529 1080.05 327.919C1080.05 327.919 1068.44 325.468 1063.23 333.856C1058.01 342.245 1061.64 347.912 1063.23 351.767C1064.81 355.621 1074.36 362.443 1074.36 362.443C1068.31 368.187 1062.54 372.808 1059.64 376.435C1019.38 352.132 984.848 358.627 970.339 365.428C969.281 359.382 969.974 354.133 963.807 345.79C1003.25 325.386 1023.89 333.911 1037.64 340.863C1037.64 340.863 1052.31 340.985 1054.53 324.888C1056.1 313.553 1046.34 304.61 1043.39 303.075C973.31 287.607 929.266 320.528 904.781 348.942C901.607 345.466 900.02 343.592 896.393 340.327C920.878 307.681 934.744 305.275 948.326 295.089C962.836 284.207 952.18 258.437 940.845 262.215C933.227 264.755 917.792 276.38 909.026 285.751L901.134 275.386C943.075 228.23 976.84 225.206 1002.23 225.206C1002.23 225.206 1020.19 220.77 1020.19 203.313Z" fill="#EDECFC" stroke="#8787DE"/>
<path id="smooth_endoplasmic_reticulum_membrane" stroke-width="0" d="M1011.87 204.242C1012.14 188.598 997.18 189.321 997.18 189.321C884.662 204.68 831.288 299.826 825.825 330.092C825.825 330.092 826.959 343.793 833.987 345.962C841.015 348.131 843.055 340.974 845.096 337.347C852.625 323.96 863.073 311.401 875.466 296.513C878.791 300.972 886.775 307.849 890.04 311.476C876.891 326.212 850.845 358.936 844.783 376.393C838.722 393.849 854.348 397.37 858.882 387.848C862.51 380.23 870.37 370.27 877.549 360.219C880.27 362.864 884.396 367.111 889.112 372.008C882.582 378.356 867.879 397.645 864.705 412.608C861.078 425.304 864.705 429.569 867.163 430.016C869.622 430.463 878.068 425.871 880.021 422.244C901.604 382.161 923.097 367.007 936.473 358.77C938.589 365.646 940.896 377.109 943.253 382.369C918.043 393.977 910.098 406.07 906.017 413.325C901.936 420.58 903.339 431.947 911.954 435.004C916.262 436.532 923.29 430.016 923.29 430.016C933.265 417.774 949.687 395.954 997.749 393.687C1050.53 392.417 1072.63 412.608 1084.66 424.1C1084.66 424.1 1093.54 435.025 1101.02 430.944C1105.1 426.864 1104.2 420.77 1100.12 412.608C1096.04 404.446 1082.89 395.435 1082.89 395.435C1086.97 390.826 1093.95 382.105 1100.12 375.938C1127.69 394.075 1136.46 412.497 1147.41 432.069C1147.41 432.069 1153.76 441.138 1160.34 437.284C1166.91 433.43 1164 424.109 1162.19 418.895C1155.48 399.488 1140.67 386 1127.07 371.264C1133.95 364.614 1144.98 354.306 1144.98 355.394C1146.11 356.754 1148.51 361.969 1152.37 367.863C1152.37 367.863 1157.81 373.758 1162.34 371.264C1166.65 368.09 1167.33 358.341 1166.42 352.673C1155.09 316.4 1117.12 281.227 1092.33 263.619C1095.13 259.311 1099.45 252.262 1103.44 246.821C1110.33 250.267 1119.98 261.828 1126.25 269.838C1126.25 269.838 1130.88 276.155 1136.84 266.912C1140.57 261.141 1135.99 250.384 1135.99 250.384C1112.55 213.451 1076.96 193.154 1054.97 189.527C1054.97 189.527 1045.08 186.062 1042.36 198.531C1039.64 211 1048.08 213.451 1048.08 213.451C1061.68 214.721 1076.18 224.237 1083.82 230.207C1081.32 234.288 1074.28 244.623 1069.38 252.24C1019.69 226.848 996.649 238.192 982.592 248.772C982.592 248.772 976.148 258.053 978.415 267.801C981.368 280.497 994.801 274.253 997.18 273.551C1069.38 252.24 1107.75 301.98 1130.88 335.76L1111.15 355.484C1098.64 343.513 1086.92 335.972 1080.27 331.363C1080.27 331.363 1071.66 327.735 1066.67 334.537C1061.68 341.338 1065.08 347.232 1066.67 351.086C1068.26 354.941 1079.82 362.014 1079.82 362.014C1073.77 367.758 1063.68 377.884 1060.78 381.512C1020.51 357.208 982.128 363.329 967.618 370.13C966.56 364.085 964.263 352.855 958.096 344.512C993.917 323.881 1021.28 328.807 1035.04 335.76C1035.04 335.76 1043.87 335.526 1045.71 324.888C1048.03 311.476 1040.77 310.169 1037.82 308.18C979.344 291.007 928.192 325.825 903.707 354.239C900.533 350.763 896.452 345.941 892.825 342.677C917.31 310.03 925.98 306.942 940.036 297.42C954.092 287.898 946.902 268.038 936.473 271.514C928.856 274.053 915.874 282.933 907.108 292.304L900.907 284.974L894.877 278.064C937.952 227.734 974.056 218.751 999.447 218.751C999.447 218.751 1011.61 219.885 1011.87 204.242Z" stroke="black"/>
<path id="Vector_4" d="M1003.01 202.36C1003.24 188.984 983.057 194.47 983.057 194.47C880.975 222.128 838.337 300.149 832.216 322.568C832.216 322.568 827.487 339.893 833.609 341.783C839.73 343.672 842.707 332.693 844.748 329.066C850.781 318.339 862.847 304.286 875.241 289.399C878.566 293.858 891.602 306.931 894.866 310.559C881.717 325.295 856.449 355.906 850.781 372.229C845.113 388.552 854.137 391.498 858.671 381.976C862.299 374.358 870.846 364.765 878.025 354.714C880.746 357.359 888.765 365.94 893.481 370.837C886.951 377.185 873.987 395.161 870.274 404.718C866.561 414.275 863.43 422.84 868.418 423.747C873.406 424.654 877.465 421.341 879.418 417.713C901.001 377.631 928.361 360.773 941.737 352.536C943.853 359.413 948.674 377.266 951.032 382.526C925.822 394.134 913.879 406.904 910.705 412.345C907.531 417.786 905.49 429.015 912.518 431.509C916.826 433.037 922.72 426.068 922.72 426.068L922.847 425.912C932.847 413.638 950.808 391.594 998.668 389.337C1051.45 388.067 1079.65 411.048 1089.47 425.482C1089.47 425.482 1094.67 429.747 1098.75 425.666C1102.83 421.585 1101.31 422.162 1097.23 414C1093.15 405.839 1077.28 393.786 1077.28 393.786C1081.36 389.176 1091.06 378.415 1097.23 372.248C1124.8 390.385 1134.54 402.782 1145.5 422.355C1145.5 422.355 1153.71 437.237 1157.57 433.836C1161.42 430.436 1161.09 427.19 1159.29 421.975C1152.58 402.569 1134.97 385.573 1121.37 370.837C1128.24 364.187 1143.99 349.998 1143.99 351.086C1145.12 352.447 1149.43 360.155 1153.29 366.049C1153.29 366.049 1156.91 371.491 1160.99 369.223C1165.3 366.049 1165.75 359.021 1164.85 353.354C1153.51 317.08 1110.7 281.205 1085.91 263.597C1088.71 259.29 1097.15 246.53 1101.14 241.089C1108.03 244.535 1118.59 254.919 1124.86 262.93C1124.86 262.93 1131.63 273.423 1134.58 263.674C1136.56 257.099 1131.39 248.506 1131.39 248.506C1107.81 214.726 1080.99 202.36 1062.38 194.579C1062.38 194.579 1049.69 188.847 1046.97 201.316C1044.25 213.785 1059.21 213.019 1059.21 213.019C1072.81 214.289 1081.99 223.341 1089.62 229.311C1087.13 233.392 1077.2 249.956 1072.31 257.573C1022.61 232.181 998.373 245.523 988.646 251.949C988.646 251.949 980.736 257.126 983.521 262.696C986.473 275.392 998.609 270.534 1000.88 269.526C1065.21 245.843 1116.44 303.359 1137.15 338.348C1131.02 344.469 1116.35 358.728 1113.81 361.267C1101.29 349.297 1089.72 340.798 1083.07 336.188C1083.07 336.188 1075.81 331.2 1070.83 338.001C1065.84 344.803 1069.24 348.43 1070.83 352.284C1072.41 356.138 1084.7 361.09 1084.7 361.09C1078.65 366.833 1063.98 382.94 1061.08 386.567C1020.82 362.264 979.44 369.536 964.931 376.337C963.873 370.291 958.359 352.401 952.192 344.058C985.841 322.576 1007.66 324.424 1023.55 327.996C1023.55 327.996 1037.04 336.784 1039.01 322.576C1039.01 311.694 1027.78 311.572 1024.83 310.036C969.604 299.411 929.294 333.14 904.809 361.554C901.636 358.078 891.207 347.323 887.579 344.058C912.064 311.412 920.487 306.488 934.543 296.967C948.599 287.445 941.798 273.992 932.276 277.166C924.658 279.705 913.576 289.799 904.809 299.17L888.94 277.362C932.015 227.032 967.487 213.401 992.803 215.819C992.803 215.819 1002.79 215.736 1003.01 202.36Z" fill="#F1F4F1" stroke="#8787DE"/>
<path id="smooth_endoplasmic_reticulum" stroke-width="0" d="M983.985 207.001C955.94 207.566 927.834 218.017 877.588 273.324M839.642 323.496C853.708 295.272 860.677 291.938 877.588 273.324M877.588 273.324L903.449 310.505M903.449 310.505C911.006 303.25 920.352 292.677 930.146 288.687M903.449 310.505C892.777 320.9 883.442 332.288 875.651 343.152M855.887 373.304C859.529 364.899 866.561 352.272 875.651 343.152M875.651 343.152L903.449 371.264M903.449 371.264C894.532 380.483 880.021 398.684 877.588 406.574M903.449 371.264C912.769 360.815 927.495 347.538 945.164 336.614M1022.51 319.319C990.018 313.749 974.777 318.307 945.164 336.614M945.164 336.614L962.394 388.04M962.394 388.04C950.53 392.499 930.146 401.469 921.328 415.857M962.394 388.04C980.587 379.657 1019.48 372.874 1058.52 393.984M1087.48 415.857C1075.47 402.197 1071.21 400.846 1058.52 393.984M1058.52 393.984L1092.53 357.208M1092.53 357.208L1075.07 344.285M1092.53 357.208C1097.3 360.661 1104.05 366.162 1111.65 373.304M1149.68 420.034C1136.47 392.869 1128.33 388.983 1111.65 373.304M1111.65 373.304L1147.84 338.844M1147.84 338.844C1151.4 344.587 1157.82 358.16 1158.73 361.062M1147.84 338.844C1134.45 316.505 1108.37 285.402 1075.07 267.794M1002.09 260.375C1024.36 250.164 1045.73 252.284 1075.07 267.794M1075.07 267.794L1101.82 227.755M1101.82 227.755C1111.04 236.219 1123.75 248.922 1126.47 255.27M1101.82 227.755C1091.09 217.704 1075.43 203.955 1056.39 204.68" stroke="black"/>
</g>
</g>
</svg>
