<?xml version="1.0" encoding="UTF-8" standalone="no"?>
<svg
   xmlns:dc="http://purl.org/dc/elements/1.1/"
   xmlns:cc="http://creativecommons.org/ns#"
   xmlns:rdf="http://www.w3.org/1999/02/22-rdf-syntax-ns#"
   xmlns:svg="http://www.w3.org/2000/svg"
   xmlns="http://www.w3.org/2000/svg"
   xmlns:sodipodi="http://sodipodi.sourceforge.net/DTD/sodipodi-0.dtd"
   xmlns:inkscape="http://www.inkscape.org/namespaces/inkscape"
   version="1.1"
   id="svg879"
   sodipodi:docname="mitochondrion.svg"
   inkscape:version="0.92.4 (33fec40, 2019-01-16)"
   width="920"
   height="920"
   style="fill:none">
  <metadata
     id="metadata885">
    <rdf:RDF>
      <cc:Work
         rdf:about="">
        <dc:format>image/svg+xml</dc:format>
        <dc:type
           rdf:resource="http://purl.org/dc/dcmitype/StillImage" />
        <dc:title />
      </cc:Work>
    </rdf:RDF>
  </metadata>
  <defs
     id="defs883" />
  <sodipodi:namedview
     pagecolor="#ffffff"
     bordercolor="#666666"
     borderopacity="1"
     objecttolerance="10"
     gridtolerance="10"
     guidetolerance="10"
     inkscape:pageopacity="0"
     inkscape:pageshadow="2"
     inkscape:window-width="1920"
     inkscape:window-height="1037"
     id="namedview881"
     showgrid="false"
     inkscape:zoom="0.70710678"
     inkscape:cx="474.9153"
     inkscape:cy="431.90272"
     inkscape:window-x="0"
     inkscape:window-y="0"
     inkscape:window-maximized="1"
     inkscape:current-layer="svg879" />
  <path
     d="M 79.580165,128.04234 C 110.35474,54.071934 160.24245,47.35607 204.42279,42.528313 405.5805,20.547316 663.8589,307.88186 785.54768,529.34763 832.38778,614.59376 895.39321,752.81364 823.77946,818.6349 724.53626,909.85074 537.58984,811.64451 428.76488,732.10588 240.99562,594.86765 -9.7569456,342.77523 79.580165,128.04234 Z"
     id="path867"
     style="fill:#f4f3fd;fill-opacity:1;stroke:#8787de;stroke-width:1.02467835"
     inkscape:connector-curvature="0" />
  <path
     d="M 102.52815,146.22342 C 130.78017,78.316545 176.39066,69.811715 217.13803,67.71911 394.77015,58.596708 633.81431,317.42258 748.61827,519.6603 794.44292,600.38451 863.30336,731.67249 794.77286,794.28237 701.22791,879.74569 528.14844,774.2171 427.11104,697.7576 257.00827,569.03341 20.513806,343.35514 102.52815,146.22342 Z"
     id="path869"
     style="fill:#f6f8f6;fill-opacity:1;stroke:#619a61;stroke-width:1.02467835;stroke-opacity:1"
     inkscape:connector-curvature="0" />
  <path
     d="m 207.67819,97.05843 c 38.98903,-10.486767 85.15591,-11.578978 120.91207,7.17275 17.66852,9.26616 30.91864,28.09801 36.88842,47.1351 7.26804,23.17618 -19.91667,54.32026 -4.09871,72.75218 18.54771,21.61356 58.64029,-2.46847 85.04831,8.19742 15.77801,6.37246 34.70996,15.57919 39.96246,31.76503 8.64624,26.64264 -41.48205,62.94296 -22.54292,80.94959 17.76793,16.89392 77.25974,-40.08133 102.46785,-16.39485 23.25713,21.85441 -29.97902,71.05434 -9.22211,95.29508 19.13689,22.35029 70.16486,-18.1849 88.12235,5.1234 16.80268,21.80929 -31.55293,62.88765 -16.39485,80.94958 19.61235,23.36887 65.93191,10.03887 85.0483,33.81439 22.55421,28.05059 39.59974,78.2189 17.41954,106.56664 -7.81317,9.98547 -30.97602,-7.53857 -37.9131,3.07403 -17.19719,26.31066 49.5596,63.97063 30.74036,89.14702 -27.22674,36.42219 -95.57176,14.11283 -136.28224,-6.14807 -31.47506,-15.66532 -66.28543,-12.56873 -99.39382,-56.35731 -17.71669,-23.43236 45.07357,-61.55656 25.61696,-82.99895 -27.41321,-30.21164 -67.35415,52.76684 -119.88738,24.59228 -37.49708,-20.11038 -9.00282,-61.96129 -30.74035,-80.94959 -14.78817,-12.91816 -46.53475,3.04739 -57.382,-13.32081 -13.21425,-19.9403 25.19274,-50.55559 12.29615,-70.7029 -15.05254,-23.5153 -67.48432,2.94088 -80.9496,-21.51824 -12.08711,-21.95473 35.71003,-50.40288 22.54293,-71.72749 -16.90516,-27.37626 -66.38995,26.91013 -95.29511,-15.37017 -21.56826,-31.54774 79.6872,-48.92225 51.23392,-77.87556 -20.0714,-20.42389 -71.39765,30.51088 -97.34456,-5.12339 -15.92371,-21.86869 47.61487,-37.54828 49.18468,-64.55474 1.24396,-21.40348 -37.5845,-34.43637 -32.78982,-55.33264 6.50415,-28.34609 44.66788,-40.60606 72.75227,-48.15978 z"
     id="path871"
     style="fill:#f8f0fb;fill-opacity:1;stroke:#c281dd;stroke-width:1.02467835;stroke-opacity:1"
     inkscape:connector-curvature="0" />
  <path
     d="m 288.6278,113.45328 c 20.8563,2.73927 42.84384,15.55195 53.28327,33.81429 15.26464,26.7021 -17.55785,69.41069 3.07404,92.22106 15.48904,17.12439 46.12796,4.14692 68.65346,9.22211 17.49229,3.94191 42.5672,0.69679 51.23393,16.39485 16.53523,29.95242 -47.6373,73.2082 -25.61696,99.3938 22.05313,26.22562 78.42275,-32.60935 102.46785,-8.19743 20.2251,20.5325 -26.87425,64.12335 -8.19744,86.07298 20.18618,23.72341 95.01229,-20.99253 93.24576,6.14807 -1.5944,24.49187 -34.17919,52.07524 -17.41955,71.72758 26.7103,31.32027 61.25836,15.05047 84.02364,37.9131 14.58835,14.65082 34.64541,47.80425 23.5676,69.67812 -6.63785,13.10563 -27.84154,-5.74442 -42.01181,13.32082 -28.22887,37.97968 48.69272,80.55913 19.46889,100.41848 -26.50125,18.00972 -85.39568,-14.86712 -130.13417,-34.83907 -17.44925,-7.78959 -44.53662,-10.51427 -53.28328,-28.69099 -14.90292,-30.96991 60.83106,-73.48479 18.44422,-101.44324 -57.85541,-38.16104 -74.89888,51.70432 -125.01079,28.69108 -23.92418,-10.9866 5.88473,-53.2116 -33.81438,-80.94968 -21.79902,-15.23074 -28.11514,4.92666 -43.0365,-10.24678 -14.38136,-14.62418 28.35387,-43.07542 9.2221,-68.65345 -26.90088,-35.96316 -60.58001,-0.72745 -74.80152,-22.54292 -13.71943,-21.04584 41.78536,-34.7171 9.2221,-74.80152 -24.69885,-30.40428 -69.36561,17.63472 -86.07299,-6.14807 -14.90088,-21.21183 81.22217,-32.50994 45.08585,-79.92491 -25.4612,-33.40755 -74.23385,11.21816 -94.27052,-2.04936 -17.4015,-11.52249 42.77736,-13.21831 55.33274,-63.53007 4.15507,-16.65204 -32.70928,-28.00651 -26.64164,-44.06117 15.31382,-40.52153 81.03567,-44.57884 123.9861,-38.93768 z"
     id="path873"
     style="fill:#ffffff;stroke:#c281dd;stroke-width:1.02467835;stroke-opacity:1"
     inkscape:connector-curvature="0" />
  <path
     id="mitochondrial_inner_membrane"
     d="m 277.14627,100.77073 c 20.85631,2.73938 63.33744,21.18779 73.77686,39.45013 15.26463,26.7021 -16.53319,68.89836 4.09872,91.70875 15.48902,17.12439 55.86238,4.14682 78.38789,9.2221 17.49229,3.94191 31.8091,3.77083 40.4748,19.46889 16.53626,29.95233 -40.98713,69.67813 -24.59229,94.78275 24.59229,23.05526 80.47211,-39.26976 104.51722,-14.85784 20.2251,20.53249 -27.89893,70.27041 -9.22211,92.22105 20.18617,23.7234 93.9876,-20.48029 92.22106,6.66041 3.58637,27.15398 -32.27737,55.33263 -19.46888,73.2645 26.71029,31.32036 60.23365,10.95176 82.99895,33.81439 19.98123,14.85783 38.23178,69.32359 27.15398,91.19637 -6.63787,13.10571 -27.15398,-7.17275 -40.98714,7.68508 -28.22784,37.97977 49.7174,79.0222 20.49358,98.88155 C 671.6475,770.39816 592.39989,731.96345 547.6614,711.9915 530.21215,704.20181 504.11256,693.5472 498.98916,673.05363 486.18068,652.04772 555.85883,610.54825 517.94572,584.41895 481.0573,555.72796 447.6579,637.6603 397.546,614.64696 373.62179,603.66037 397.03366,552.7195 368.34265,532.6727 c -21.799,-15.23084 -36.31255,4.92666 -51.23391,-10.24679 -14.38137,-14.62417 27.15397,-49.18456 13.32082,-69.16578 -22.57982,-32.61444 -66.21575,-1.75222 -80.43726,-23.5676 -13.32083,-20.43418 34.83907,-35.35141 16.39486,-74.28918 -24.69885,-30.40428 -65.57943,24.59228 -91.19639,-9.73445 -19.4689,-29.20333 76.33854,-36.37608 49.6969,-75.82619 -20.49357,-32.27737 -72.23983,13.32081 -94.78276,-4.61106 -24.04439,-19.12663 56.86965,-39.45011 50.72159,-71.72752 -9.16268,-18.95655 -39.8978,-32.69953 -30.22802,-51.74626 16.90719,-33.30205 83.59737,-46.6282 126.54779,-40.98714 z"
     inkscape:connector-curvature="0"
     style="stroke:#5555ff;stroke-width:0" />
  <path
     id="mitochondrial_intermembrane_space"
     d="m 230.01107,78.227802 c 58.919,-4.098713 122.90301,25.873448 134.23287,45.085858 16.56598,28.09156 15.00949,47.72952 37.40077,71.7275 16.80984,18.01486 33.96093,7.46887 58.40667,12.80848 18.98422,4.14686 37.72969,14.22565 47.13522,30.74038 17.94518,31.5109 -17.79252,39.16834 0,65.57941 16.9072,16.90719 49.21836,-13.89773 75.31387,11.7838 21.9486,21.60129 -10.02237,53.75869 10.24678,76.85088 21.9066,24.95809 49.18457,-16.9072 72.23983,29.71567 3.89173,28.56702 -17.99951,54.40018 -4.09872,73.2645 28.98713,32.9506 42.41042,9.25084 67.11645,33.30204 21.68425,15.63049 47.8863,96.87622 35.86375,119.88737 -7.2035,13.78813 2.71642,26.89376 -12.29614,42.52415 -30.6348,39.95536 62.84044,54.30804 5.63573,95.29518 -38.36499,27.48904 -164.06844,-19.97614 -212.62079,-40.98714 -18.93709,-8.19542 -74.36502,-32.74768 -79.92491,-54.30804 -13.9008,-22.09916 16.90718,-30.22792 -3.07406,-48.67222 -27.6663,-16.39485 -29.12648,18.06202 -83.51129,-6.14807 -25.96432,-11.55833 -5.23918,-58.83597 -36.37608,-79.92491 -23.65778,-16.02386 -55.02216,-11.70385 -71.21516,-27.66632 -15.6079,-15.38554 0.15473,-41.99644 -14.85783,-63.01771 -24.50417,-34.31136 -46.55933,-6.76492 -61.99305,-29.71568 -14.45617,-21.49668 16.94306,-8.73332 -3.07404,-49.69689 -26.80456,-31.98532 -39.96246,9.2221 -56.35731,-35.35141 -21.12877,-30.72298 37.9131,-25.61696 22.03058,-54.30795 -24.07994,-16.90719 -48.92071,2.41926 -56.357316,-43.54883 -5.262236,-32.5284 38.437226,-24.44985 31.765036,-58.40669 -9.94379,-19.9423 -22.27795,-31.70868 -11.78381,-51.74627 18.34872,-35.03458 53.79563,-65.067088 110.15295,-65.067088 z"
     inkscape:connector-curvature="0"
     style="stroke:#5555ff;stroke-width:0" />
  <path
     id="mitochondrial_outer_membrane"
     d="M 90.494939,138.67185 C 119.56435,68.868694 168.5447,57.052314 210.47044,54.901308 393.24235,45.524255 618.87655,266.25633 759.76984,512.69147 806.92043,595.66995 881.00468,743.44083 810.49143,807.79892 714.23928,895.64867 522.00037,786.48759 418.03956,707.89278 243.01526,575.57394 6.1075425,341.30788 90.494939,138.67185 Z"
     inkscape:connector-curvature="0"
     style="stroke:#5555ff;stroke-width:0" />
  <path
     id="mitochondrial_matrix"
     d="m 266.38716,241.66405 c -58.91903,-21.0059 -42.21677,-77.46572 -12.29615,-79.92495 24.07994,-1.97967 36.37608,1.4284 36.37608,55.84501 0,29.71567 21.68938,58.919 56.86966,64.55474 12.63737,4.09871 37.50323,15.78001 35.86375,29.71567 -2.04936,17.41953 -1.53703,67.11643 24.07994,75.82619 25.61697,8.70977 61.48072,7.68509 72.75217,18.44421 11.27147,10.75913 0,37.9131 11.27147,55.33263 11.27145,17.41954 56.35732,31.76503 66.6041,29.20334 10.24678,-2.5617 8.70978,48.15988 22.03058,55.33263 13.32083,7.17274 31.76505,7.17274 59.94371,24.59228 28.17865,17.41953 -15.88252,45.08584 -21.51827,61.99304 -5.63573,16.90719 -40.98713,-19.46889 -23.05524,-38.42544 -22.54294,-23.5676 -31.76506,-30.74035 -63.53008,-52.77094 -31.76504,-22.03058 -65.06708,-16.39485 -75.8262,-11.7838 -10.75914,4.61106 -59.9437,-13.83315 -25.61697,-38.93777 34.32674,-25.10462 33.8144,-43.54883 16.90719,-52.77094 -16.90719,-9.2221 -44.57351,6.14807 -45.59819,23.5676 -1.02469,17.41954 -38.93778,-24.59228 -28.69099,-55.33263 10.24678,-30.74035 -30.74036,1.02468 -48.15989,-8.70976 -17.41955,-9.73445 -5.63574,-50.20924 16.90719,-55.84497 22.54292,-5.63573 -15.37017,-32.27737 -37.9131,-23.05526 -22.54293,9.2221 -47.13521,-18.95655 -28.691,-27.66632"
     inkscape:connector-curvature="0"
     style="stroke:#000000;stroke-width:0" />
</svg>
