<?xml version="1.0" encoding="UTF-8" standalone="no"?>
<svg
   xmlns:dc="http://purl.org/dc/elements/1.1/"
   xmlns:cc="http://creativecommons.org/ns#"
   xmlns:rdf="http://www.w3.org/1999/02/22-rdf-syntax-ns#"
   xmlns:svg="http://www.w3.org/2000/svg"
   xmlns="http://www.w3.org/2000/svg"
   xmlns:sodipodi="http://sodipodi.sourceforge.net/DTD/sodipodi-0.dtd"
   xmlns:inkscape="http://www.inkscape.org/namespaces/inkscape"
   version="1.1"
   id="svg879"
   sodipodi:docname="mitochondrion.svg"
   inkscape:version="0.92.4 (33fec40, 2019-01-16)"
   width="1000"
   height="800"
   style="fill:none">
  <metadata
     id="metadata885">
    <rdf:RDF>
      <cc:Work
         rdf:about="">
        <dc:format>image/svg+xml</dc:format>
        <dc:type
           rdf:resource="http://purl.org/dc/dcmitype/StillImage" />
        <dc:title></dc:title>
      </cc:Work>
    </rdf:RDF>
  </metadata>
  <defs
     id="defs883" />
  <sodipodi:namedview
     pagecolor="#ffffff"
     bordercolor="#666666"
     borderopacity="1"
     objecttolerance="10"
     gridtolerance="10"
     guidetolerance="10"
     inkscape:pageopacity="0"
     inkscape:pageshadow="2"
     inkscape:window-width="1920"
     inkscape:window-height="1037"
     id="namedview881"
     showgrid="false"
     inkscape:zoom="0.70710678"
     inkscape:cx="206.92183"
     inkscape:cy="431.90272"
     inkscape:window-x="0"
     inkscape:window-y="0"
     inkscape:window-maximized="1"
     inkscape:current-layer="svg879" />
  <path
     d="M 10.747058,151.30227 C 22.73066,65.128968 73.292199,44.351686 118.37729,27.127787 323.65445,-51.294102 674.01872,179.51931 862.77303,378.70536 935.42786,455.37567 1039.6359,583.25033 982.50776,672.09583 903.33894,795.21893 679.93272,743.471 543.73052,689.84607 308.72382,597.31999 -24.040653,401.45962 10.747058,151.30227 Z"
     id="path867"
     style="fill:#f4f3fd;fill-opacity:1;stroke:#8787de;stroke-width:1.11274648"
     inkscape:connector-curvature="0" />
  <path
     d="M 39.855578,164.09009 C 50.856971,84.980601 96.433059,63.500433 138.66401,50.094177 322.7636,-8.348408 645.08008,197.80616 821.31282,378.68622 891.65709,450.88538 1000.1092,569.8674 945.3369,654.49115 870.57203,770.00368 659.71946,706.74913 532.54532,654.21691 318.43974,565.77581 7.9193446,393.74262 39.855578,164.09009 Z"
     id="path869"
     style="fill:#f6f8f6;fill-opacity:1;stroke:#619a61;stroke-width:1.11274648;stroke-opacity:1"
     inkscape:connector-curvature="0" />
  <path
     d="m 136.79615,83.51817 c 38.07486,-21.740974 86.27437,-35.586961 128.99529,-25.722637 21.11013,4.874551 40.20969,21.01351 51.71749,39.370617 14.01012,22.34824 -5.98194,62.54358 15.70524,77.55609 25.43001,17.6041 60.92472,-18.7227 91.60101,-14.78156 18.32815,2.35462 40.74921,6.81923 50.71919,22.37829 16.41144,25.61078 -26.26536,77.53377 -1.41628,91.24099 23.31266,12.86042 70.13938,-63.35777 103.13654,-45.408 30.44367,16.56176 -11.94992,82.89106 16.52356,102.64744 26.25159,18.21601 68.70874,-38.4033 93.98485,-18.85646 23.65062,18.28971 -15.8497,74.74457 5.04247,89.5499 27.03127,19.15529 72.02508,-7.58892 98.64718,12.12996 31.4095,23.26444 63.11566,71.27948 47.61184,107.16063 -5.4614,12.63916 -34.61491,0.60066 -38.98348,13.65768 -10.8293,32.3705 69.65973,53.5716 56.81443,85.19669 -18.58442,45.75173 -96.51963,41.11381 -144.86035,31.02677 -37.37452,-7.79948 -73.09229,5.02849 -119.91824,-31.86624 -25.05725,-19.74339 30.41973,-77.06517 4.08197,-94.23946 -37.10848,-24.19814 -56.24395,73.95975 -119.18157,58.81107 -44.92353,-10.81278 -26.50075,-62.6162 -54.55969,-76.585 -19.08873,-9.50335 -48.04818,16.00117 -63.94579,1.78942 -19.36679,-17.31329 12.5601,-60.03989 -6.5299,-77.65804 -22.28129,-20.56332 -70.08572,21.65162 -90.95915,-0.33981 -18.73677,-19.73953 23.6509,-62.77232 3.95289,-81.55286 -25.28953,-24.1098 -62.3431,46.53114 -104.33855,10.06481 -31.33567,-27.20948 70.25775,-73.31317 32.40271,-95.90333 -26.70345,-15.9352 -66.61344,51.69128 -103.673092,21.39312 C 66.623142,265.98439 129.05985,232.0356 123.28064,203.2326 118.70025,180.40533 74.324795,177.39392 73.614078,154.12282 72.650096,122.55522 109.37023,99.17847 136.79615,83.51817 Z"
     id="path871"
     style="fill:#f8f0fb;fill-opacity:1;stroke:#c281dd;stroke-width:1.11274648;stroke-opacity:1"
     inkscape:connector-curvature="0" />
  <path
     d="m 226.34609,78.475676 c 22.66374,-2.859 49.28667,4.55332 65.27685,20.867094 23.38068,23.85282 0.64685,77.7478 28.59554,96.03592 20.98199,13.72939 49.5997,-8.3314 74.65949,-9.19556 19.46052,-0.67029 44.91,-10.97645 58.33258,3.13105 25.6095,26.91793 -29.90813,90.01083 0.42759,111.46284 30.38115,21.48502 73.41637,-55.8281 105.39127,-36.79633 26.89482,16.00704 -10.59467,74.75582 15.0634,92.67746 27.73162,19.36991 94.03958,-48.18729 99.64903,-19.18923 5.06172,26.16809 -21.58273,64.10811 1.4294,80.14369 36.67501,25.55617 68.49381,-1.03855 98.69811,16.71767 19.35539,11.37856 49.54517,40.69054 43.92412,66.71684 -3.36848,15.59374 -30.82857,1.62334 -40.47087,25.54969 -19.20879,47.66358 73.31185,71.23687 48.07368,100.13805 -22.88677,26.20924 -93.80049,7.87037 -146.29329,-0.80516 -20.47365,-3.38369 -49.67932,1.20453 -63.86765,-15.4849 -24.17456,-28.43579 43.69257,-93.93045 -8.5265,-111.64292 -71.27564,-24.1759 -64.4622,74.91876 -123.43651,64.52624 -28.15515,-4.96127 -8.45417,-57.5193 -57.78908,-75.73955 -27.08996,-10.00444 -28.1808,12.90891 -48.02981,1.07295 -19.13059,-11.40752 17.9385,-53.05121 -9.19554,-74.65949 -38.1523,-30.38124 -63.84152,15.89882 -84.78225,-3.10735 -20.20157,-18.33574 34.34775,-47.96495 -10.88663,-81.11824 -34.30995,-25.14714 -68.02043,37.60547 -92.11378,17.21632 -21.48838,-18.18515 76.38462,-56.49368 25.38027,-96.36515 -35.93691,-28.09249 -74.89962,32.20371 -99.59817,23.77697 -21.450254,-7.31837 41.30331,-25.65257 40.65448,-81.9603 -0.21522,-18.63644 -42.06564,-20.42486 -40.10734,-38.9598 4.94192,-46.78148 72.86903,-69.121172 119.54161,-75.008804 z"
     id="path873"
     style="fill:#ffffff;stroke:#c281dd;stroke-width:1.11274648;stroke-opacity:1"
     inkscape:connector-curvature="0" />
  <path
     id="mitochondrial_inner_membrane"
     d="m 210.79591,68.310299 c 22.66376,-2.858881 72.36607,4.837034 88.35626,21.150807 23.38065,23.852854 1.58237,76.927734 29.53111,95.215874 20.98194,13.72939 59.826,-11.00902 84.88581,-11.8731 19.46053,-0.67028 34.4538,-4.78795 47.87529,9.31982 25.61058,26.91755 -23.89287,84.47317 0.23573,106.33693 32.1766,17.45605 73.7373,-63.38876 105.71222,-44.35701 26.8948,16.00703 -9.98033,81.49536 15.67802,99.41807 27.73158,19.3699 93.10399,-47.36734 98.71347,-18.36917 11.23652,27.53974 -18.68883,67.00703 -0.30073,82.322 36.675,25.55625 66.28992,-5.06255 96.49423,12.69367 25.07773,10.11267 59.23184,62.31088 53.6105,88.33605 -3.36846,15.59381 -30.49912,-0.0663 -40.94457,19.3473 -19.2077,47.66339 73.96558,69.34041 48.72741,98.24161 -29.95081,37.17343 -123.77499,18.59414 -176.2678,9.91859 -20.47367,-3.38377 -50.82283,-7.39792 -61.84209,-27.51789 -19.2336,-18.54438 42.55097,-81.30656 -4.46517,-98.32801 -46.64427,-19.99442 -59.19535,75.26517 -118.16965,64.87254 -28.15519,-4.96125 -17.57189,-64.91604 -53.22684,-78.08423 -27.08999,-10.00453 -36.79249,15.1637 -56.64149,3.3277 -19.13063,-11.40748 14.99759,-59.13903 -5.03063,-76.32507 -32.69175,-28.05185 -70.04393,16.37242 -90.98463,-2.63361 -19.61458,-17.80283 26.87596,-46.72069 -3.21047,-82.55295 -34.30996,-25.14713 -62.12918,43.87322 -98.48255,14.85795 -28.48538,-25.32405 70.19076,-59.21191 31.35171,-93.32761 -30.40736,-28.2716 -72.22646,33.86412 -100.84092,21.22669 C 71.039719,268.04766 150.4526,224.44106 135.11568,192.22357 120.27583,174.82928 84.207383,168.84576 89.126865,146.17675 97.728455,106.54131 164.12336,74.198038 210.79591,68.310299 Z"
     inkscape:connector-curvature="0"
     style="stroke:#5555ff;stroke-width:0" />
  <path
     id="mitochondrial_intermembrane_space"
     d="m 155.07809,57.593092 c 60.76911,-20.512001 136.23065,-6.624526 153.41759,10.442412 25.12996,24.954566 28.89637,46.013066 59.02005,65.064866 22.61448,14.30157 37.73152,-1.49492 64.88133,-2.60949 21.08424,-0.86535 43.54927,4.5667 57.97261,19.32892 27.51939,28.16733 -7.91809,46.04172 18.03816,68.89349 22.41208,13.11112 47.88293,-28.13797 82.36109,-8.3364 28.99941,16.65575 4.25792,59.23212 31.90308,77.91607 29.87858,20.19374 47.01965,-31.29024 84.06401,11.34724 11.946,28.94021 -3.94589,62.10024 15.84615,78.09431 39.51534,26.64262 47.09817,-1.94701 79.6682,16.52404 27.07935,10.45594 76.95283,88.60033 70.65214,116.08126 -3.775,16.4663 10.25104,27.50566 -1.22093,48.05527 -21.1929,50.40087 80.95395,39.76772 32.13225,98.56079 -32.74269,39.43078 -177.85425,24.14274 -234.63945,15.42466 -22.1483,-3.40076 -87.13059,-13.94789 -98.9018,-35.0685 -20.68182,-19.39241 9.44715,-36.40594 -16.61711,-50.28633 -33.57395,-9.61352 -25.63026,26.98626 -89.42261,16.51171 -30.45565,-5.00072 -21.68727,-60.36816 -60.19836,-73.95838 -29.26082,-10.32635 -61.02194,2.839 -82.42385,-9.47613 -20.62859,-11.86996 -11.38893,-44.16129 -32.94223,-62.11554 -35.18012,-29.30521 -50.77296,5.69975 -73.29942,-14.16566 -21.09956,-18.60673 15.3971,-13.83498 -16.89892,-51.36277 C 161.5131,366.22996 159.02471,413.139 129.54105,370.82251 98.893914,344.35857 162.32392,333.48267 137.74709,307.7104 107.79983,296.57219 87.019625,323.70796 66.563306,277.46239 52.087937,244.73756 100.21783,241.20447 83.868353,207.36685 67.936756,189.15191 51.742844,180.18352 57.255804,156.24682 66.895228,114.39481 95.872763,73.094636 155.07809,57.593092 Z"
     inkscape:connector-curvature="0"
     style="stroke:#5555ff;stroke-width:0" />
  <path
     id="mitochondrial_outer_membrane"
     d="M 25.137146,159.46676 C 36.475649,78.140301 84.681033,52.25433 128.13383,38.462596 317.5629,-21.661248 615.31373,148.16299 831.11109,368.2979 903.46836,442.50054 1021.942,577.36155 965.56764,664.36723 888.61519,783.13143 656.6358,721.33078 525.80318,667.35947 305.53861,576.49574 -7.77806,395.55445 25.137146,159.46676 Z"
     inkscape:connector-curvature="0"
     style="stroke:#5555ff;stroke-width:0" />
  <path
     id="mitochondrial_matrix"
     d="m 238.24694,219.28305 c -67.67434,-5.86126 -65.65777,-69.76838 -34.90154,-80.58181 24.75229,-8.70309 38.60725,-8.50494 53.57498,48.66162 8.17355,31.21735 38.99162,55.93061 77.49988,52.17454 14.4034,0.82983 43.73888,6.26189 45.84967,21.35275 2.63847,18.86351 16.84622,70.93092 46.15344,73.03468 29.30723,2.10375 66.7015,-8.83733 81.50194,-0.63481 14.80046,8.20255 10.42831,39.82905 27.06078,55.02856 16.63244,15.19953 67.94257,17.86875 78.00255,12.35915 10.06002,-5.50963 22.39672,48.19793 38.36361,52.06915 15.9669,3.87123 35.34321,-1.20202 69.73726,9.34705 34.39406,10.54905 -4.28389,51.73287 -5.55397,71.04464 -1.27009,19.31175 -48.4135,-9.1789 -34.78959,-34.02573 -30.16463,-18.55798 -41.82569,-23.55659 -81.25566,-37.96326 -39.42999,-14.40666 -72.86478,0.67387 -82.89932,8.47733 -10.03454,7.80347 -66.77788,1.95579 -37.62167,-33.85933 29.15622,-35.81515 23.54475,-55.05051 3.2465,-60.08818 -20.29821,-5.03768 -45.13495,18.71907 -41.42004,37.30074 3.71492,18.58169 -47.6698,-15.1249 -45.36057,-50.23718 2.3092,-35.11229 -32.01199,9.53187 -52.98936,4.09688 -20.9774,-5.435 -19.73101,-51.19642 2.40099,-63.31757 22.13197,-12.12115 -25.02507,-29.68083 -46.17059,-13.79205 -21.14553,15.88874 -54.73135,-6.9496 -37.75076,-21.17275"
     inkscape:connector-curvature="0"
     style="stroke:#000000;stroke-width:0" />
</svg>
