<?xml version="1.0" encoding="UTF-8" standalone="no"?>
<!-- Created with Inkscape (http://www.inkscape.org/) -->

<svg
   xmlns:dc="http://purl.org/dc/elements/1.1/"
   xmlns:cc="http://creativecommons.org/ns#"
   xmlns:rdf="http://www.w3.org/1999/02/22-rdf-syntax-ns#"
   xmlns:svg="http://www.w3.org/2000/svg"
   xmlns="http://www.w3.org/2000/svg"
   xmlns:xlink="http://www.w3.org/1999/xlink"
   xmlns:sodipodi="http://sodipodi.sourceforge.net/DTD/sodipodi-0.dtd"
   xmlns:inkscape="http://www.inkscape.org/namespaces/inkscape"
   width="1000px"
   height="800px"
   viewBox="0 0 1000 800"
   version="1.1"
   id="SVGRoot"
   sodipodi:docname="nucleus.svg"
   inkscape:version="0.92.4 (33fec40, 2019-01-16)">
  <defs
     id="defs815">
    <linearGradient
       inkscape:collect="always"
       id="linearGradient2893">
      <stop
         style="stop-color:#ffffff;stop-opacity:1"
         offset="0"
         id="stop2889" />
      <stop
         style="stop-color:#f7f4fc;stop-opacity:1"
         offset="1"
         id="stop2891" />
    </linearGradient>
    <radialGradient
       inkscape:collect="always"
       xlink:href="#linearGradient2893"
       id="radialGradient2895"
       cx="648.26392"
       cy="416.96146"
       fx="648.26392"
       fy="416.96146"
       r="144.88506"
       gradientTransform="matrix(1.4225728,1.3152777,-1.3086264,1.4153771,272.82101,-1027.6702)"
       gradientUnits="userSpaceOnUse" />
  </defs>
  <sodipodi:namedview
     id="base"
     pagecolor="#ffffff"
     bordercolor="#666666"
     borderopacity="1.0"
     inkscape:pageopacity="0.0"
     inkscape:pageshadow="2"
     inkscape:zoom="1.0182338"
     inkscape:cx="431.64859"
     inkscape:cy="401.42262"
     inkscape:document-units="px"
     inkscape:current-layer="layer1"
     showgrid="false"
     inkscape:window-width="1920"
     inkscape:window-height="1008"
     inkscape:window-x="0"
     inkscape:window-y="0"
     inkscape:window-maximized="0" />
  <metadata
     id="metadata818">
    <rdf:RDF>
      <cc:Work
         rdf:about="">
        <dc:format>image/svg+xml</dc:format>
        <dc:type
           rdf:resource="http://purl.org/dc/dcmitype/StillImage" />
        <dc:title />
      </cc:Work>
    </rdf:RDF>
  </metadata>
  <g
     inkscape:label="Layer 1"
     inkscape:groupmode="layer"
     id="layer1">
    <path
       style="fill:#fbfbf7;fill-opacity:1;stroke:none;stroke-width:1px;stroke-linecap:butt;stroke-linejoin:miter;stroke-opacity:1"
       d="M 41.247898,34.949769 C 4.9798209,70.932487 36.460125,137.01639 34.066238,188.0497 29.258111,290.55022 -20.533981,401.12999 19.641858,495.55126 57.980199,585.65404 102.05019,728.65385 287.7604,742.13979 528.43222,759.61695 880.38333,844.20156 962.45086,744.02071 1023.5569,669.42784 955.18498,554.12464 961.37219,430.8762 967.89963,300.85032 983.90362,171.58032 913.96139,87.951681 842.17064,2.1127988 666.79744,-18.824607 582.64257,54.932993 481.14777,143.88818 332.37434,23.597401 205.27603,28.553552 150.59999,30.685624 80.091594,-3.5883034 41.247898,34.949769 Z"
       id="path1640"
       inkscape:connector-curvature="0"
       sodipodi:nodetypes="aasssssssa" />
    <ellipse
       style="opacity:1;fill:#ffffff;fill-opacity:1;stroke:none;stroke-width:0.99014753;stroke-miterlimit:4;stroke-dasharray:none;stroke-opacity:1"
       id="path1644"
       cx="517.84937"
       cy="400.3241"
       rx="400.69382"
       ry="392.83707">
      <title
         id="title2963">Nucleoplasm</title>
    </ellipse>
    <path
       id="path1392"
       style="fill:#f9fbff;fill-opacity:1;stroke:#2a7fff;stroke-width:0.96487552px;stroke-linecap:butt;stroke-linejoin:miter;stroke-opacity:1"
       d="m 111.17152,275.81717 c 0,0 -18.305799,51.79383 -12.045838,99.34417 8.989588,68.28423 49.422458,13.97778 48.708868,-4.56591 -2.48392,-64.54991 8.6841,-71.82737 21.22236,-105.50017 6.93659,-18.62898 -28.37368,-39.4191 -57.88539,10.72191 z M 209.98599,127.30735 C 241.56938,83.441537 291.27143,46.971482 349.66283,28.085363 442.34682,-1.8923493 556.59632,-6.14471 648.85798,16.942058 c 76.50893,19.144939 133.26599,58.899073 189.8821,118.783142 64.39862,68.11582 103.00569,172.23326 103.43869,267.98355 0.42111,93.12178 -23.73492,177.93666 -98.23791,261.52613 -46.14239,51.76997 -94.39409,92.02504 -196.23342,116.85289 C 555.5587,804.55311 412.32178,811.20192 307.98154,766.902 233.60116,735.32219 169.45675,671.78073 131.99061,600.18454 109.4565,557.12284 98.422451,494.03178 109.94636,456.05642 c 8.93259,-29.43601 34.83834,-36.90969 42.83188,4.24686 10.24084,52.72736 24.28224,83.81823 49.83437,118.04141 48.37213,64.78711 111.06493,127.42569 187.44471,153.94665 76.40682,26.53034 164.87454,17.71653 242.60061,-4.65568 59.95092,-17.25592 119.47445,-49.34817 160.39632,-96.43616 52.3506,-60.2388 88.16196,-140.76424 93.55202,-220.38991 4.56565,-67.4471 -25.98282,-156.05416 -53.36194,-195.65816 C 785.60441,146.24012 709.10181,90.345744 628.00223,67.21544 539.71391,42.034845 439.67313,55.248818 353.22834,86.171134 c -41.7588,14.937616 -67.58799,37.506446 -108.4273,77.109596 -58.72617,56.94862 -59.88748,-1.15055 -34.81505,-35.97338 z"
       inkscape:connector-curvature="0">
      <title
         id="title2961">Nuclear envelope</title>
    </path>
    <path
       style="fill:url(#radialGradient2895);fill-opacity:1;stroke:#8d5fd3;stroke-width:0.86086971px;stroke-linecap:butt;stroke-linejoin:miter;stroke-opacity:1"
       d="m 628.78324,290.33533 c 36.6833,-11.52089 80.71857,-19.13422 115.3252,-2.37784 29.53457,14.30051 50.20873,46.9811 59.44597,78.46869 10.07069,34.32862 5.8985,74.17537 -8.32243,107.00276 -14.71916,33.97749 -40.95105,67.25499 -74.90192,82.03545 -37.79178,16.45259 -86.37117,16.40001 -123.64765,-1.18892 -35.10598,-16.5648 -64.94501,-51.64988 -74.90192,-89.16897 -10.22875,-38.5434 -0.49744,-84.37589 21.40056,-117.70303 18.83171,-28.66049 52.88417,-46.79258 85.60219,-57.06814 z"
       id="path1394"
       inkscape:connector-curvature="0"
       sodipodi:nodetypes="aaaaaaaaa">
      <title
         id="title2968">Neucleoid</title>
    </path>
    <path
       id="path825"
       style="fill:#d7f4d7;stroke:none;stroke-width:1.00857675px;stroke-linecap:butt;stroke-linejoin:miter;stroke-opacity:1"
       d="m 97.606947,401.57654 c 25.359823,18.4031 33.782353,21.18517 52.504033,-9.80561 9.5133,-1.90266 15.02976,59.67179 9.8056,47.54835 C 137.63877,420.82415 112.48549,421.36514 104.2395,450.50201 93.953648,432.21256 91.616205,403.21037 97.606947,401.57654 Z M 182.83031,153.08577 c -25.74549,23.6951 -44.25643,51.52423 -51.53239,85.77334 31.77642,-6.11429 44.05502,4.83099 48.11696,15.89273 16.31438,-16.88428 31.87498,-34.52235 40.3887,-59.2073 -29.092,0.51781 -32.93803,-6.71341 -36.97327,-42.45877 z"
       inkscape:connector-curvature="0">
      <title
         id="title2966">Nuclear pore</title>
    </path>
    <path
       style="fill:none;stroke:none;stroke-width:1.00857675px;stroke-linecap:butt;stroke-linejoin:miter;stroke-opacity:1"
       d="m 564.27809,333.53812 39.57263,-24.86422 55.33164,-18.56061 65.13726,-2.45141 49.02804,33.96943 25.21442,63.73645 -7.70441,79.49546 -42.37423,59.88425 -49.72845,30.81762 -61.28504,4.20241 -67.58865,-27.66583 -44.12524,-64.43685 -0.3502,-61.63524 18.91081,-51.47945 39.57263,-20.66181 51.47945,-24.86422 57.78305,-11.20641 42.72443,12.95741 35.37022,31.16782 8.05461,40.62324 4.5526,51.82964 -11.9068,37.47143 -33.26903,38.87223 -33.26902,28.71642 -47.27704,7.3542 -63.03605,-13.3076 -31.86823,-30.46742 c 0,0 -26.61522,-37.12124 -26.26502,-39.92284 0.3502,-2.8016 0.7004,-64.43685 0.7004,-64.43685 0,0 24.86422,-42.72444 26.26502,-43.77503 1.40081,-1.0506 80.19587,-34.66983 80.19587,-34.66983 l 31.86822,-8.75501 51.82964,5.60321 28.71642,30.11722 12.60721,31.51803 -1.4008,51.82964 -7.70441,36.42083 -12.9574,20.66181 -35.02003,34.66983 -47.62723,11.5566 -48.67784,-9.8056 -49.72845,-34.66983 -18.91081,-34.31963 5.60321,-53.58064 24.51401,-41.32363 c 0,0 60.23445,-22.76301 61.63525,-23.11322 1.4008,-0.3502 70.74045,-15.75901 70.74045,-15.75901 0,0 24.16383,16.80961 26.61523,18.91081 2.4514,2.10121 16.80961,30.81763 16.80961,32.21843 0,1.4008 3.15181,55.33164 3.15181,55.33164 l -19.26102,48.67784 -24.86422,29.41682 -47.27704,15.05862 -50.42884,-10.15581 -38.87223,-31.51802 -19.26101,-36.07063 8.0546,-46.92684 30.46742,-35.72043 72.14126,-19.61121 53.23045,0.3502 16.4594,31.86822 5.95341,52.88024 -17.15981,39.22244 -24.86423,33.96942 -36.77102,9.8056 -43.07463,-8.4048 -34.31963,-29.76703 -18.91082,-33.26902 10.50602,-37.12122 18.2104,-26.96543 53.23045,-14.70841 37.47143,-3.502 33.26903,11.5566 5.9534,22.06262 3.15181,46.57664 -19.96142,32.56862 -16.80962,24.86422 -42.02403,1.4008 -43.77503,-12.60721 -24.16382,-34.66982 -0.35021,-27.31562 18.91082,-31.16783 20.31161,-15.40881 54.63125,-9.80561 31.86822,8.05461 14.00802,47.27703 -18.56062,46.57665 -20.31162,24.16381 -43.42483,-5.60321 -35.72043,-17.51001 c 0,0 -10.1558,-27.66582 -10.50601,-29.06662 -0.3502,-1.4008 12.60721,-40.62323 12.60721,-40.62323 l 36.77104,-21.71242 48.67784,3.85221 20.66181,37.12122 c 0,0 -30.11722,43.42484 -30.81763,44.82564 -0.70039,1.4008 -37.12122,11.90681 -37.12122,11.90681 l -32.91883,-18.56061 8.755,-38.52204 19.26103,-27.31562 38.87222,8.40481 10.85621,28.01602 -31.51803,28.71642 -31.16782,-5.9534 5.25301,-28.36623 19.96141,-21.36221 15.40881,20.31162 -18.21041,19.61121 -12.95742,-12.95741 13.65782,-9.45541"
       id="neucleoid"
       inkscape:connector-curvature="0"
       inkscape:label="Neucleoid">
      <title
         id="title829">Neucleoid</title>
    </path>
    <path
       style="fill:none;stroke:none;stroke-width:1.00857675px;stroke-linecap:butt;stroke-linejoin:miter;stroke-opacity:1"
       d="M 175.82674,313.08134 301.62226,133.79796 480.90564,77.338546 680.98986,110.02557 824.61467,230.86851 870.1784,419.06654 811.73797,578.53961 685.94244,682.54377 497.74442,727.117 c 0,0 -173.34029,-46.55425 -175.32132,-50.51632 -1.98104,-3.96206 -121.83346,-136.6912 -121.83346,-136.6912 L 174.83622,369.54075 314.49898,179.36168 482.88668,124.88331 663.16057,151.62724 788.9561,245.72626 835.51034,425.00964 776.07939,566.65342 671.0847,646.88521 494.77287,690.46791 336.29032,642.92314 227.33357,517.12762 208.51376,367.55971 334.30929,210.06768 487.83926,161.5324 645.33129,185.30478 748.34495,264.54606 H 624.53046 l -103.01366,60.42146 -33.67754,115.89037 45.56373,94.09901 77.26024,57.44993 90.13696,-6.93361 -45.56374,32.68702 -159.47307,36.64909 -152.53945,-49.5258 -88.15592,-99.05159 -11.88619,-137.68171 103.01366,-132.72913 141.64378,-39.62064 127.77655,17.82929 49.5258,21.79135 -90.13695,9.90516 -96.08004,54.47836 -28.72497,131.73863 45.56373,100.04211 89.14644,69.33611 -93.1085,28.72496 -130.7481,-48.53527 -72.30767,-88.15593 -15.84825,-117.87139 98.06108,-118.86191 118.86191,-35.65857 70.32663,5.94309 -116.88088,59.43096 -26.74392,144.61532 57.44991,108.95675 39.62064,41.60168 -36.64909,11.88618 -100.0421,-41.60166 -58.44044,-70.32664 -10.89568,-102.02314 79.24127,-105.9852 77.26025,-24.7629 -51.50684,35.65857 -26.74392,148.57739 54.47837,115.89037 -46.55425,-11.8862 -56.4594,-76.26972 -1.98104,-80.2318 56.45942,-71.31714 -29.71548,130.74811 37.6396,74.28869"
       id="nucleoplasm"
       inkscape:connector-curvature="0"
       inkscape:label="Nucleoplasm">
      <title
         id="title2918">Nucleoplasm</title>
    </path>
    <path
       id="nucleus_membrane"
       style="fill:none;stroke:none;stroke-width:1.00857675px;stroke-linecap:butt;stroke-linejoin:miter;stroke-opacity:1"
       d="m 148.0923,257.61245 -21.79135,34.66805 -6.93362,75.27921 -0.99051,23.77238 m 100.20995,-236.78455 28.45486,-32.95027 36.19739,-33.714207 41.74975,-21.667597 48.61997,-17.43977 70.81603,-16.382816 77.68626,-7.927168 99.69768,11.257249 80.51327,28.907072 85.61343,51.790827 72.40147,80.85713 25.89541,56.01865 20.61064,61.83193 14.26891,95.65449 -24.83847,101.99623 -39.63584,79.80017 -52.31932,72.92995 -92.48362,66.58821 -103.0532,31.70867 -53.90475,7.3987 -68.17364,5.81325 c 0,0 -63.41735,-6.87021 -65.53125,-7.39869 -2.11392,-0.52847 -65.53126,-20.08215 -65.53126,-20.08215 l -57.26025,-25.41779 -79.56469,-62.70424 -50.96936,-70.68224 -35.22337,-81.1247 -0.0762,-39.73753"
       inkscape:connector-curvature="0"
       inkscape:label="Nucleus membrane">
      <title
         id="title2923">Nucleus membrane</title>
    </path>
    <path
       id="nucleus_inner_membrane"
       style="fill:none;stroke:none;stroke-width:1.00857675px;stroke-linecap:butt;stroke-linejoin:miter;stroke-opacity:1"
       d="m 134.22507,386.37952 6.27451,-23.7367 0.6591,-40.64684 19.81033,-58.44044 m 49.03054,-81.71759 41.10641,-32.19176 47.04951,-42.09693 39.12538,-20.305579 45.56374,-16.343514 66.36456,-15.352998 72.80293,-7.428869 92.11798,7.924128 76.76498,29.715478 80.2318,48.535284 67.85034,75.77447 24.26764,52.49734 19.31507,57.94519 13.37196,89.64169 -23.27713,95.58479 -37.14435,74.78396 -49.03054,68.3456 -86.67014,62.40251 -96.57531,29.71547 -50.51631,6.93361 -63.88828,5.44784 c 0,0 -59.43095,-6.43835 -61.41199,-6.93361 -1.98104,-0.49525 -61.41199,-18.8198 -61.41199,-18.8198 l -54.97364,-31.69651 -65.37405,-57.44993 -56.95466,-72.80293 -31.69651,-62.89775 -11.88619,-52.99261"
       inkscape:connector-curvature="0"
       inkscape:label="Nucleus inner membrane">
      <title
         id="title2928">Nucleus inner membrane</title>
    </path>
    <path
       id="nucleus_outer_membrane"
       style="fill:none;stroke:none;stroke-width:1.00857675px;stroke-linecap:butt;stroke-linejoin:miter;stroke-opacity:1"
       d="m 108.47166,393.31313 -6.19352,-40.41967 c 0.76232,-30.45661 6.94032,-56.85145 18.26798,-79.38405 6.75929,-7.28002 15.17807,-14.56004 24.57463,-21.84006 m 55.86441,-98.03608 17.99218,-33.92932 52.65999,-47.116817 46.59253,-28.33015 58.00105,-19.693215 70.07588,-14.382183 91.9904,-4.1123299 86.99349,8.8690489 90.12132,29.056534 85.59675,58.525322 42.87048,41.78327 33.07075,43.02704 32.76467,67.86265 16.01511,55.74973 c 8.4238,32.29871 10.67472,85.79934 13.56571,119.94232 -4.61723,20.79383 -6.81426,48.35733 -10.41606,65.37727 -4.19932,19.84339 -11.20563,40.28159 -17.03759,53.51246 l -33.86925,68.29286 c -12.98091,9.32929 -19.20525,24.35571 -28.03016,35.47476 -9.48357,11.94896 -21.4281,25.531 -31.7499,33.31639 l -39.12769,34.37163 -54.37553,32.67054 -63.47092,21.339 -52.32505,10.51912 -60.04219,7.76043 -63.8023,1.89506 c 0,0 -67.21827,-2.3033 -69.43553,-2.85761 -2.21727,-0.55431 -75.03874,-15.46079 -75.03874,-15.46079 l -71.33465,-33.375 -74.57047,-60.0982 -61.64508,-89.18881 -23.56939,-79.50328 2.10523,-58.61139"
       inkscape:connector-curvature="0"
       inkscape:label="Nucleus outer membrane">
      <title
         id="title2933">Nucleus outer membrane</title>
    </path>
    <path
       id="nuclear_pore"
       style="fill:none;stroke:none;stroke-width:1.00857675px;stroke-linecap:butt;stroke-linejoin:miter;stroke-opacity:1"
       d="m 101.53805,440.85789 c -0.49527,-1.98103 -3.466805,-33.18229 -3.466805,-33.18229 l 10.895675,16.34352 15.75855,-2.45947 15.93795,-3.48362 9.90516,-20.30558 6.93362,34.66805 -9.90516,-7.42887 m 32.16115,-259.91785 4.20241,21.36223 9.1052,11.2064 19.61122,2.1012 -9.10521,11.90682 -16.45941,-4.90281 -10.85621,-11.90681 -4.55261,-18.21042 -8.0546,14.70842 5.6032,16.8096 12.60721,9.80562 16.45942,2.4514 -7.70441,11.90681 -14.35821,-5.25301 -12.60721,-9.45541 -7.35421,-15.75901 -8.4048,10.85621 11.9068,12.25701 11.90681,9.80561 15.05861,1.751 -7.3542,10.50601 -14.00801,-8.755 -19.96142,-13.65782 -7.004,10.15581"
       inkscape:connector-curvature="0"
       inkscape:label="Nuclear pore">
      <title
         id="title2938">Nuclear pore</title>
    </path>
  </g>
</svg>
