<?xml version="1.0" encoding="UTF-8" standalone="no"?>
<!-- Created with Inkscape (http://www.inkscape.org/) -->

<svg
   xmlns:dc="http://purl.org/dc/elements/1.1/"
   xmlns:cc="http://creativecommons.org/ns#"
   xmlns:rdf="http://www.w3.org/1999/02/22-rdf-syntax-ns#"
   xmlns:svg="http://www.w3.org/2000/svg"
   xmlns="http://www.w3.org/2000/svg"
   xmlns:xlink="http://www.w3.org/1999/xlink"
   xmlns:sodipodi="http://sodipodi.sourceforge.net/DTD/sodipodi-0.dtd"
   xmlns:inkscape="http://www.inkscape.org/namespaces/inkscape"
   width="800"
   height="900"
   viewBox="0 0 800 900"
   version="1.1"
   id="SVGRoot"
   sodipodi:docname="ribosome.svg"
   inkscape:version="0.92.4 (33fec40, 2019-01-16)">
  <defs
     id="defs815">
    <linearGradient
       id="linearGradient1640"
       inkscape:collect="always">
      <stop
         id="stop1636"
         offset="0"
         style="stop-color:#eef9e7;stop-opacity:1" />
      <stop
         id="stop1638"
         offset="1"
         style="stop-color:#f9fff5;stop-opacity:1" />
    </linearGradient>
    <linearGradient
       inkscape:collect="always"
       id="linearGradient1630">
      <stop
         style="stop-color:#ebebff;stop-opacity:1"
         offset="0"
         id="stop1626" />
      <stop
         style="stop-color:#f5f9ff;stop-opacity:1"
         offset="1"
         id="stop1628" />
    </linearGradient>
    <radialGradient
       inkscape:collect="always"
       xlink:href="#linearGradient1630"
       id="radialGradient1632"
       cx="452.99036"
       cy="626.78381"
       fx="452.99036"
       fy="626.78381"
       r="317.65115"
       gradientTransform="matrix(-0.2581871,-0.80285594,0.95675668,-0.30769476,-20.729644,1099.5968)"
       gradientUnits="userSpaceOnUse" />
    <linearGradient
       inkscape:collect="always"
       xlink:href="#linearGradient1640"
       id="linearGradient1634"
       x1="436.01758"
       y1="576.75592"
       x2="446.36115"
       y2="655.2641"
       gradientUnits="userSpaceOnUse"
       gradientTransform="matrix(1.0168506,0,0,1.0168506,1.3702472,-90.672416)" />
  </defs>
  <sodipodi:namedview
     id="base"
     pagecolor="#ffffff"
     bordercolor="#666666"
     borderopacity="1.0"
     inkscape:pageopacity="0.0"
     inkscape:pageshadow="2"
     inkscape:zoom="0.90509668"
     inkscape:cx="324.0031"
     inkscape:cy="462.03151"
     inkscape:document-units="px"
     inkscape:current-layer="layer1"
     showgrid="false"
     inkscape:window-width="1920"
     inkscape:window-height="1037"
     inkscape:window-x="0"
     inkscape:window-y="0"
     inkscape:window-maximized="1" />
  <metadata
     id="metadata818">
    <rdf:RDF>
      <cc:Work
         rdf:about="">
        <dc:format>image/svg+xml</dc:format>
        <dc:type
           rdf:resource="http://purl.org/dc/dcmitype/StillImage" />
        <dc:title />
      </cc:Work>
    </rdf:RDF>
  </metadata>
  <g
     inkscape:label="Layer 1"
     inkscape:groupmode="layer"
     id="layer1"
     transform="translate(0,100)">
    <path
       style="fill:#fbfbf7;fill-opacity:1;stroke:none;stroke-width:0.78633064px;stroke-linecap:butt;stroke-linejoin:miter;stroke-opacity:1"
       d="M 13.565228,102.35775 C 104.58821,-105.55052 493.59229,-101.89338 684.55427,-13.283924 c 91.05057,42.248942 35.35897,193.901894 43.13775,291.975574 12.38936,156.20301 124.49892,368.15307 5.46071,470.049 -97.08603,83.10501 -296.3456,34.69874 -378.09066,-63.53508 -9.54294,-11.46784 9.31754,-32.55409 0.72653,-44.75137 C 306.5109,570.49106 157.58911,630.77137 112.69129,557.92003 68.74957,486.62006 165.5821,390.85126 147.47112,309.07992 129.71742,228.92167 -19.361474,177.56659 13.565228,102.35775 Z"
       id="path3610"
       inkscape:connector-curvature="0"
       sodipodi:nodetypes="asaaaaaaa" />
    <path
       style="fill:url(#radialGradient1632);fill-opacity:1;stroke:#5599ff;stroke-width:1.01685071px;stroke-linecap:butt;stroke-linejoin:miter;stroke-opacity:1"
       d="M 123.46377,-6.153003 C 263.67737,-192.38397 520.06646,8.6858609 601.30208,79.164708 678.72371,146.33457 767.98408,388.77621 712.36043,474.86866 664.18116,549.43895 558.98785,497.1369 454.74975,507.6344 351.95152,517.98689 251.89826,589.82803 186.45802,532.06649 103.37739,458.73448 41.115046,103.22214 123.46377,-6.153003 Z"
       id="path1371"
       inkscape:connector-curvature="0"
       sodipodi:nodetypes="ssssss">
      <title
         id="title3600">Ribosome large subunit</title>
    </path>
    <path
       style="fill:url(#linearGradient1634);fill-opacity:1;stroke:#5aa02c;stroke-width:1.01685071px;stroke-linecap:butt;stroke-linejoin:miter;stroke-opacity:1"
       d="m 178.16538,523.60159 c 69.78465,76.32285 182.36907,-13.92576 294.68423,-17.6736 100.46911,-3.35254 190.98505,40.4032 240.38218,-32.3346 36.42146,-53.631 49.34287,172.07086 -5.96983,220.52785 -59.70896,52.30842 -157.50608,-22.03707 -236.83429,-24.9299 -95.52816,-3.48361 -216.76433,74.41224 -286.62838,9.16823 -37.7271,-35.23221 -34.64885,-186.49139 -5.63391,-154.75798 z"
       id="path1373"
       inkscape:connector-curvature="0"
       sodipodi:nodetypes="sssaaas">
      <title
         id="title3602">Ribosome small subunit</title>
    </path>
    <path
       style="fill:#fdfcf7;fill-opacity:1;stroke:#d38d5f;stroke-width:1.01685071px;stroke-linecap:butt;stroke-linejoin:miter;stroke-opacity:1"
       d="m 622.138,365.37963 c -3.95343,67.82923 -53.30121,22.30709 -65.1146,46.1422 -13.83277,27.90949 50.75999,97.25063 3.17766,93.39414 -26.17595,-2.12153 -14.94551,-1.13209 -57.21592,-4.61932 -22.00854,-1.81568 -14.13551,0.0385 -32.27429,-0.15303 -19.16754,-0.20245 17.47159,-73.18577 -4.13761,-97.50049 -27.23479,-30.64459 -114.93246,28.9727 -121.42066,-19.60731 -3.95989,-66.82165 16.01001,-73.34787 135.81575,-52.47289 57.64235,10.04363 148.9817,-75.30987 141.16967,34.8167 z"
       id="path1381"
       inkscape:connector-curvature="0"
       sodipodi:nodetypes="casssacsc">
      <title
         id="title3604">tRNA</title>
    </path>
    <path
       style="opacity:1;fill:#fff9fa;fill-opacity:1;stroke:#ff2a7f;stroke-width:0.57209527;stroke-miterlimit:4;stroke-dasharray:none;stroke-opacity:1"
       d="m 567.32702,-94.990232 a 19.009982,19.009982 0 0 0 -19.00834,19.010334 19.009982,19.009982 0 0 0 6.47646,14.273644 19.009982,19.009982 0 0 0 -3.3564,-0.315782 19.009982,19.009982 0 0 0 -19.00834,19.01034 19.009982,19.009982 0 0 0 3.71585,11.252883 19.009982,19.009982 0 0 0 -7.74552,-1.664301 19.009982,19.009982 0 0 0 -19.00836,19.01034 19.009982,19.009982 0 0 0 2.62156,9.5865973 19.009982,19.009982 0 0 0 -9.14966,-2.349481 19.009982,19.009982 0 0 0 -19.01035,19.0103347 19.009982,19.009982 0 0 0 3.69801,11.227067 19.009982,19.009982 0 0 0 -5.00085,-0.691142 19.009982,19.009982 0 0 0 -19.01034,19.010336 19.009982,19.009982 0 0 0 8.59955,15.88829 19.009982,19.009982 0 0 0 -17.27058,18.915017 19.009982,19.009982 0 0 0 16.3133,18.793855 19.009982,19.009982 0 0 0 -14.2339,18.38672 19.009982,19.009982 0 0 0 19.01032,19.00836 19.009982,19.009982 0 0 0 6.63138,-1.20554 19.009982,19.009982 0 0 0 -5.05446,12.8755 19.009982,19.009982 0 0 0 19.01034,19.00833 19.009982,19.009982 0 0 0 5.60658,-0.86589 19.009982,19.009982 0 0 0 -5.20937,13.04229 19.009982,19.009982 0 0 0 19.01033,19.01033 19.009982,19.009982 0 0 0 5.73369,-0.9096 19.009982,19.009982 0 0 0 -8.22418,15.62812 19.009982,19.009982 0 0 0 15.58243,18.68463 19.009982,19.009982 0 0 0 -14.72844,18.49597 19.009982,19.009982 0 0 0 8.31554,15.71549 19.009982,19.009982 0 0 0 -4.18457,-0.48259 19.009982,19.009982 0 0 0 -19.01035,19.00833 19.009982,19.009982 0 0 0 5.08028,12.91123 19.009982,19.009982 0 0 0 -6.38312,-1.13006 19.009982,19.009982 0 0 0 -19.01034,19.01033 19.009982,19.009982 0 0 0 19.01034,19.01036 19.009982,19.009982 0 0 0 19.01035,-19.01036 19.009982,19.009982 0 0 0 -5.07632,-12.90724 19.009982,19.009982 0 0 0 6.37916,1.1261 19.009982,19.009982 0 0 0 19.01033,-19.01036 19.009982,19.009982 0 0 0 -8.31553,-15.71351 19.009982,19.009982 0 0 0 4.18458,0.48262 19.009982,19.009982 0 0 0 19.01034,-19.01034 19.009982,19.009982 0 0 0 -15.58047,-18.68265 19.009982,19.009982 0 0 0 14.72448,-18.49795 19.009982,19.009982 0 0 0 -19.00835,-19.00836 19.009982,19.009982 0 0 0 -5.7317,0.90565 19.009982,19.009982 0 0 0 8.22218,-15.62614 19.009982,19.009982 0 0 0 -19.01033,-19.01033 19.009982,19.009982 0 0 0 -5.60857,0.86787 19.009982,19.009982 0 0 0 5.21136,-13.04227 19.009982,19.009982 0 0 0 -19.01033,-19.01035 19.009982,19.009982 0 0 0 -6.63139,1.20552 19.009982,19.009982 0 0 0 5.05447,-12.87349 19.009982,19.009982 0 0 0 -16.31329,-18.79386 19.009982,19.009982 0 0 0 14.23392,-18.386715 19.009982,19.009982 0 0 0 -8.60153,-15.88829 19.009982,19.009982 0 0 0 17.27255,-18.915017 19.009982,19.009982 0 0 0 -3.698,-11.229041 19.009982,19.009982 0 0 0 5.00085,0.693127 19.009982,19.009982 0 0 0 19.01034,-19.010347 19.009982,19.009982 0 0 0 -2.62158,-9.5846067 19.009982,19.009982 0 0 0 9.1477,2.3474947 19.009982,19.009982 0 0 0 19.01034,-19.010339 19.009982,19.009982 0 0 0 -3.71787,-11.254868 19.009982,19.009982 0 0 0 7.74554,1.666285 19.009982,19.009982 0 0 0 19.01035,-19.010339 19.009982,19.009982 0 0 0 -6.47648,-14.273642 19.009982,19.009982 0 0 0 3.35441,0.31578 19.009982,19.009982 0 0 0 19.01035,-19.01034 19.009982,19.009982 0 0 0 -19.01035,-19.010334 z"
       id="circle1531"
       inkscape:connector-curvature="0">
      <title
         id="title3606">Growing peptide chain</title>
    </path>
    <path
       style="opacity:1;fill:#fef9ff;fill-opacity:1;stroke:#dd55ff;stroke-width:1;stroke-miterlimit:4;stroke-dasharray:none;stroke-opacity:1"
       d="m 15.264557,344.31123 c -4.109948,-0.12042 -7.7610541,1.38633 -9.771297,4.45071 -3.5737693,5.44779 -0.5692205,13.69139 6.736635,18.48404 l 15.334186,10.05928 c 4.927601,3.23252 10.509698,4.03526 14.722485,2.55007 -1.349895,5.01047 1.264703,11.40116 6.883602,15.73735 l 14.517925,11.20324 c 4.837443,3.73313 10.57595,4.91712 14.954854,3.53316 -2.3092,4.76816 -0.732847,11.66275 4.289839,16.9091 l 12.682828,13.24487 c 4.735316,4.9462 11.066556,6.89332 15.852546,5.34246 -2.5583,4.42485 -1.83294,11.15062 2.24819,16.80782 l 10.72856,14.87142 c 4.63106,6.41946 11.92725,9.16845 17.18915,6.79822 -3.73467,4.40003 -3.11328,12.17327 1.77353,18.40063 l 11.32041,14.42656 c 4.87788,6.21595 12.26288,8.66923 17.4235,6.11103 -0.5507,0.61863 -1.0212,1.30746 -1.39024,2.07143 -2.83395,5.86678 1.21838,13.64881 9.08612,17.44933 l 16.5119,7.97591 c 7.86774,3.80053 16.48225,2.13701 19.31619,-3.72978 2.83397,-5.86676 -1.21838,-13.64879 -9.0861,-17.44932 l -16.51192,-7.9759 c -5.38564,-2.60155 -11.11962,-2.64095 -15.11174,-0.5263 3.77939,-4.39143 3.17047,-12.19869 -1.73382,-18.4483 l -11.32041,-14.42458 c -4.77297,-6.08228 -11.94843,-8.57189 -17.08984,-6.27985 3.62492,-4.30615 3.22018,-11.8906 -1.30283,-18.1603 l -10.72856,-14.87146 c -4.34248,-6.01944 -11.02871,-8.80908 -16.18422,-7.1815 2.72612,-4.77501 1.2214,-12.0173 -4.00186,-17.47315 L 99.923319,410.97254 c -4.657407,-4.86481 -10.859538,-6.8297 -15.616197,-5.4179 2.522417,-5.18157 0.0084,-12.55013 -6.250056,-17.3798 L 63.539141,376.9716 c -4.92493,-3.80064 -10.782177,-4.95366 -15.189205,-3.44974 1.419397,-5.22799 -1.665293,-11.80446 -7.884564,-15.88432 L 25.133171,347.58026 c -3.196311,-2.09679 -6.671986,-3.17534 -9.868614,-3.26903 z m 774.202613,33.81625 c -4.53132,-0.10838 -9.65985,2.5191 -13.30644,7.29273 L 765.029,399.99374 c -3.99889,5.23481 -5.03636,11.50735 -3.08829,15.9737 -5.08547,-1.32786 -11.50833,1.47046 -15.72742,7.30463 l -10.74643,14.85952 c -3.71467,5.13663 -4.65295,11.15648 -2.87976,15.53676 -4.76481,-1.94546 -11.37482,-0.23636 -16.40268,4.67911 l -13.11181,12.81788 c -4.69954,4.59448 -6.63183,10.63666 -5.36428,15.33219 -3.97387,-2.54188 -10.04718,-2.73437 -15.77311,-0.0477 l -16.60126,7.78925 c -6.30294,2.95744 -10.19869,8.4703 -10.12681,13.57258 -2.31068,-4.76291 -8.69132,-7.79986 -15.91609,-7.11797 l -18.25566,1.7219 c -6.36439,0.60068 -11.54508,3.91656 -13.63413,8.1904 -1.07611,-5.34863 -6.8647,-9.83547 -14.31734,-10.61336 l -18.23977,-1.90462 c -7.10983,-0.74212 -13.44481,2.12821 -15.88628,6.74458 -0.77272,-5.71771 -6.96194,-10.45644 -14.85754,-10.99272 l -18.29538,-1.24126 c -8.36687,-0.56828 -15.47825,3.79568 -16.42848,9.89443 -1.04728,-5.74757 -7.60603,-10.15262 -15.61023,-10.15262 h -18.3371 c -8.73757,0 -15.7711,5.24392 -15.7711,11.75932 0,6.5154 7.03353,11.76131 15.7711,11.76131 h 18.3371 c 8.08863,0 14.70597,-4.49879 15.64598,-10.33533 1.02916,5.51413 7.1107,10.01778 14.79795,10.53988 l 18.29536,1.24326 c 6.98099,0.47416 13.08963,-2.48799 15.47718,-7.02262 0.75635,5.60298 6.69845,10.39125 14.42062,11.19727 l 18.23777,1.90262 c 7.17373,0.74881 13.55344,-2.18227 15.94588,-6.87168 1.19419,5.99646 8.37345,10.10049 16.65886,9.31848 l 18.25565,-1.72188 c 8.34393,-0.78752 14.65474,-6.23533 14.61724,-12.40281 2.83114,5.7959 11.35426,7.50975 19.20697,3.82511 l 16.60126,-7.78921 c 7.2236,-3.38943 11.28297,-10.13165 9.82889,-15.76914 4.79719,2.9401 12.23331,1.41237 17.75915,-3.98993 l 13.11378,-12.81987 c 5.0364,-4.92381 6.89155,-11.50756 5.03859,-16.31727 5.23007,2.10938 12.32089,-0.6573 16.85946,-6.93326 l 10.74644,-14.85952 c 3.79394,-5.24628 4.69641,-11.41603 2.76655,-15.8168 5.01371,1.31191 11.37943,-1.33501 15.68175,-6.967 l 11.13171,-14.57156 c 5.30414,-6.94343 5.40595,-15.71852 0.22841,-19.67367 -1.61799,-1.23599 -3.55484,-1.84938 -5.61453,-1.89865 z m -344.7322,117.67464 c -0.53296,-0.006 -1.07364,0.009 -1.61862,0.0438 l -18.29933,1.16978 c -8.02455,0.51327 -14.3113,5.3708 -14.94096,11.2092 -2.97888,-4.53233 -9.96234,-6.57063 -17.14348,-4.59768 l -17.68166,4.85784 c -8.42537,2.31482 -13.81907,9.23631 -12.09298,15.51888 1.7261,6.28259 9.89979,9.47648 18.32517,7.16165 l 17.68166,-4.85784 c 6.91932,-1.90102 11.78374,-6.90932 12.34918,-12.11878 2.63259,4.10171 8.42848,6.72231 15.0045,6.30169 l 18.29933,-1.17177 c 8.71977,-0.55774 15.40452,-6.24031 14.98864,-12.74241 -0.38991,-6.09571 -6.87706,-10.68424 -14.87145,-10.77424 z m -94.39233,22.05095 c -1.97926,0.007 -4.05949,0.32599 -6.14082,0.98905 l -17.47117,5.56686 c -8.32531,2.6522 -13.4371,9.78359 -11.45942,15.99156 1.97768,6.20798 10.27392,9.07108 18.59922,6.41887 l 17.47117,-5.56686 c 8.32531,-2.6522 13.43514,-9.78358 11.45742,-15.99157 -1.48325,-4.65598 -6.51864,-7.4307 -12.4564,-7.40791 z m -49.00147,15.56854 c -1.04034,0.006 -2.10667,0.0905 -3.18562,0.26016 l -18.11463,2.84998 c -8.63135,1.35822 -14.76409,7.63289 -13.7513,14.06907 1.01279,6.43619 8.77623,10.52379 17.4076,9.16557 l 18.11464,-2.84996 c 8.63136,-1.35822 14.7661,-7.6329 13.75331,-14.06909 -0.88622,-5.63167 -6.94173,-9.46517 -14.224,-9.42573 z m -71.04051,2.34352 c -7.28126,0.12799 -13.24506,4.10089 -14.00156,9.75144 -0.86457,6.45777 5.41077,12.58988 14.07106,13.74933 l 18.17622,2.43289 c 8.66028,1.15946 16.32653,-3.105 17.19112,-9.56276 0.86458,-6.45778 -5.41078,-12.58988 -14.07107,-13.74932 l -18.1762,-2.4349 c -1.08255,-0.14493 -2.14941,-0.20496 -3.18957,-0.18668 z"
       id="rect1587"
       inkscape:connector-curvature="0">
      <title
         id="title3608">mRNA</title>
    </path>
  </g>
</svg>
